<?xml version="1.0" encoding="UTF-8"?>
<svg version="1.1" xmlns="http://www.w3.org/2000/svg" width="1024" height="1024">
<path d="M0 0 C337.92 0 675.84 0 1024 0 C1024 337.92 1024 675.84 1024 1024 C686.08 1024 348.16 1024 0 1024 C0 686.08 0 348.16 0 0 Z " fill="#54392A" transform="translate(0,0)"/>
<path d="M0 0 C28.45199382 -0.99033866 60.12302684 2.4597079 84.98046875 17.08251953 C86.33834066 17.84821207 87.69774889 18.61118578 89.05859375 19.37158203 C92.38680891 21.24075324 95.68928686 23.14895017 98.98046875 25.08251953 C98.32046875 25.41251953 97.66046875 25.74251953 96.98046875 26.08251953 C95.13964844 25.43334961 95.13964844 25.43334961 92.90234375 24.35205078 C92.07814941 23.96283447 91.25395508 23.57361816 90.40478516 23.17260742 C89.52226074 22.75100342 88.63973633 22.32939941 87.73046875 21.89501953 C75.01996374 16.01530703 62.91156124 12.69158189 48.98046875 11.08251953 C49.51188477 11.217146 50.04330078 11.35177246 50.59082031 11.49047852 C80.3662133 19.17023459 104.70001033 32.8509272 126.98046875 54.08251953 C128.04201172 55.06478516 128.04201172 55.06478516 129.125 56.06689453 C143.6690142 69.92962089 160.46243565 91.66811797 162.16015625 112.26220703 C162.16661357 113.87008088 162.08510864 115.47804126 161.98046875 117.08251953 C159.28390244 113.03767006 157.89937932 108.61247811 156.27929688 104.06298828 C154.84499276 100.12323733 153.29802368 96.61073749 150.98046875 93.08251953 C151.33109375 94.32001953 151.68171875 95.55751953 152.04296875 96.83251953 C152.93640148 99.98581153 152.98928169 101.95026117 151.98046875 105.08251953 C151.45839844 104.08994141 150.93632813 103.09736328 150.3984375 102.07470703 C140.01332549 82.74220041 125.54163137 67.37279151 109.98046875 52.08251953 C113.92432784 52.08251953 114.68663467 53.30750171 117.54296875 55.95751953 C118.4246875 56.77478516 119.30640625 57.59205078 120.21484375 58.43408203 C124.5432838 62.57911361 128.77491715 66.81335455 132.98046875 71.08251953 C134.64597032 72.75035048 136.31232651 74.41732975 137.98046875 76.08251953 C135.66823714 73.06567297 133.33029791 70.07015946 130.98046875 67.08251953 C130.51382812 66.47537109 130.0471875 65.86822266 129.56640625 65.24267578 C112.73840385 44.3306845 82.74417717 29.94037323 56.98046875 24.08251953 C56.3246582 23.93298828 55.66884766 23.78345703 54.99316406 23.62939453 C43.16424448 21.07536071 31.34200481 20.79369182 19.29296875 20.77001953 C18.56260406 20.76643433 17.83223938 20.76284912 17.07974243 20.75915527 C3.86274686 20.72427851 -8.9521502 22.19424321 -22.01953125 24.08251953 C-22.01953125 24.74251953 -22.01953125 25.40251953 -22.01953125 26.08251953 C-22.84022095 26.30016968 -22.84022095 26.30016968 -23.67749023 26.5222168 C-67.72078527 38.32749385 -99.61956038 62.03741753 -122.98339844 101.61450195 C-133.73523392 120.40516317 -139.83300448 139.70641594 -143.01953125 161.08251953 C-143.12410645 161.78119141 -143.22868164 162.47986328 -143.33642578 163.19970703 C-145.39571212 178.14150557 -144.81502221 194.69604666 -140.01953125 209.08251953 C-140.17550781 207.86822266 -140.33148438 206.65392578 -140.4921875 205.40283203 C-143.40615874 178.73558004 -140.3849041 149.98705537 -130.01953125 125.08251953 C-129.7064502 124.32503418 -129.39336914 123.56754883 -129.07080078 122.78710938 C-113.9005564 86.49875324 -88.94580714 57.22296485 -52.27294922 41.54125977 C-44.02591431 38.16189521 -35.60461188 35.45845149 -27.01953125 33.08251953 C-25.90843994 32.76275146 -25.90843994 32.76275146 -24.77490234 32.43652344 C-13.13657139 29.19751763 -1.59227461 28.71626757 10.41796875 28.70751953 C11.50393845 28.7045285 11.50393845 28.7045285 12.61184692 28.70147705 C25.0842314 28.70536809 37.08039329 29.95281079 49.10546875 33.39501953 C50.24314697 33.71442505 50.24314697 33.71442505 51.40380859 34.0402832 C57.53707004 35.82311702 63.30224245 38.14334953 68.98046875 41.08251953 C65.37927695 42.2829168 64.75773939 41.81175452 61.35546875 40.39501953 C56.37638885 38.48305285 51.4144211 37.10107501 46.23046875 35.89501953 C45.52196777 35.72848877 44.8134668 35.56195801 44.08349609 35.39038086 C34.60932957 33.23071413 25.34467915 32.84067154 15.66796875 32.83251953 C14.95049469 32.83184479 14.23302063 32.83117004 13.49380493 32.83047485 C2.39051857 32.84706104 -8.20320871 33.45159033 -19.01953125 36.08251953 C-19.80070313 36.26476074 -20.581875 36.44700195 -21.38671875 36.63476562 C-58.31351339 45.34954741 -86.9487223 63.36929148 -108.01953125 95.08251953 C-108.41897949 95.67564941 -108.81842773 96.2687793 -109.22998047 96.87988281 C-132.07748665 131.08510884 -140.07673423 172.37838322 -132.2109375 212.62548828 C-127.1460597 236.59151266 -116.14558539 259.81793035 -101.01953125 279.08251953 C-100.29894531 280.00677734 -99.57835937 280.93103516 -98.8359375 281.88330078 C-74.81639018 311.98058451 -35.25467493 333.97230597 3.07397461 338.61035156 C8.00348771 339.14621163 12.87384284 339.21024547 17.828125 339.18017578 C19.17407997 339.17805336 19.17407997 339.17805336 20.54722595 339.17588806 C23.37917589 339.17034463 26.2110432 339.15780311 29.04296875 339.14501953 C30.97721239 339.13999721 32.91145728 339.13543559 34.84570312 339.13134766 C39.55732292 339.12039382 44.26888188 339.10316906 48.98046875 339.08251953 C48.98046875 339.41251953 48.98046875 339.74251953 48.98046875 340.08251953 C9.65578454 347.15719956 -24.1329985 340.47226612 -60.01953125 323.08251953 C-60.91929687 322.64810547 -61.8190625 322.21369141 -62.74609375 321.76611328 C-64.5150368 320.89379944 -66.2702428 319.99360727 -68.01953125 319.08251953 C-59.98073729 323.91930648 -51.79415884 328.28274919 -43.33203125 332.33251953 C-42.05162964 332.95006104 -42.05162964 332.95006104 -40.74536133 333.58007812 C-7.71102541 349.19745972 27.95322937 349.86152037 62.26904297 337.99560547 C87.28614402 328.92341794 109.55415939 316.3855389 128.98046875 298.08251953 C129.6559375 297.47150391 130.33140625 296.86048828 131.02734375 296.23095703 C138.81960271 288.90623361 145.43564943 279.7604843 149.98046875 270.08251953 C148.66046875 270.74251953 147.34046875 271.40251953 145.98046875 272.08251953 C147.12515625 270.53564453 147.12515625 270.53564453 148.29296875 268.95751953 C148.84210938 268.21373047 149.39125 267.46994141 149.95703125 266.70361328 C151.39636861 264.83914346 152.89887183 263.02271153 154.44140625 261.24267578 C171.18132611 241.71735054 180.81472009 216.19433188 179.18554688 190.45751953 C178.4137951 181.51989893 176.97502528 172.75364009 172.65234375 164.78173828 C171.98046875 163.08251953 171.98046875 163.08251953 172.98046875 160.08251953 C178.83837512 167.8729311 182.83350603 176.54815822 184.98046875 186.08251953 C185.45110003 169.11364718 182.49653498 154.54674985 177.5390625 138.39111328 C176.39874527 134.63688837 175.46776632 130.98757538 174.98046875 127.08251953 C175.97046875 127.08251953 176.96046875 127.08251953 177.98046875 127.08251953 C195.10157492 158.28829638 203.03356592 197.16844102 193.57446289 232.39306641 C191.91886518 237.7129231 190.04083436 242.90704658 187.98046875 248.08251953 C187.43543701 249.49936035 187.43543701 249.49936035 186.87939453 250.94482422 C172.25241963 288.59097612 151.05414911 316.66503919 115.98046875 337.08251953 C115.3992627 337.42734375 114.81805664 337.77216797 114.21923828 338.12744141 C86.71026523 354.3064075 53.51978208 363.91384507 21.98046875 368.08251953 C41.58951271 367.7566895 61.58498435 363.87394076 79.98046875 357.08251953 C80.72893066 356.81101074 81.47739258 356.53950195 82.24853516 356.25976562 C106.69149994 347.28263944 128.98493245 335.02469892 147.98046875 317.08251953 C149.26857577 315.99495612 150.56016409 314.9115004 151.85546875 313.83251953 C178.46160693 290.44486581 192.26620427 257.69468252 200.98046875 224.08251953 C201.31046875 224.08251953 201.64046875 224.08251953 201.98046875 224.08251953 C202.1945792 230.13977315 201.528135 235.40331933 200.04296875 241.27001953 C199.82624512 242.12934082 199.60952148 242.98866211 199.38623047 243.87402344 C196.65845626 254.06029589 192.43817853 263.55272339 187.98046875 273.08251953 C187.66819336 273.76072754 187.35591797 274.43893555 187.03417969 275.13769531 C167.42773932 317.45036522 131.34916705 347.92327675 87.98046875 364.08251953 C83.02282026 365.89472081 78.02875067 367.53785179 72.98046875 369.08251953 C72.07683594 369.36740234 71.17320312 369.65228516 70.2421875 369.94580078 C64.5603249 371.62708031 58.81458134 372.71594383 52.98046875 373.70751953 C52.25690186 373.83078613 51.53333496 373.95405273 50.7878418 374.08105469 C1.11381834 382.11647676 -50.62630184 370.05778376 -91.44140625 340.73486328 C-100.29456442 334.23083677 -108.52368626 327.04929297 -116.50341797 319.51074219 C-117.5049577 318.56726273 -118.51172839 317.62930197 -119.52392578 316.69726562 C-141.92407625 296.01852041 -154.97385981 267.76753559 -164.01953125 239.08251953 C-164.2820166 238.25623047 -164.54450195 237.42994141 -164.81494141 236.57861328 C-176.98235816 197.26218637 -176.15971747 154.45207717 -161.01953125 116.08251953 C-160.02953125 115.09251953 -160.02953125 115.09251953 -159.01953125 114.08251953 C-159.34953125 116.39251953 -159.67953125 118.70251953 -160.01953125 121.08251953 C-159.82431885 120.56568604 -159.62910645 120.04885254 -159.42797852 119.51635742 C-150.4663644 95.98335103 -139.23674202 74.68506886 -121.46435547 56.55810547 C-119.9276981 54.98873116 -118.41353708 53.39926041 -116.8984375 51.80908203 C-102.85498549 37.23921284 -86.63656346 26.46469098 -68.83203125 16.95751953 C-67.44951172 16.2103064 -67.44951172 16.2103064 -66.0390625 15.44799805 C-65.1728125 14.99481201 -64.3065625 14.54162598 -63.4140625 14.07470703 C-62.63909424 13.66591309 -61.86412598 13.25711914 -61.06567383 12.8359375 C-59.01953125 12.08251953 -59.01953125 12.08251953 -56.01953125 13.08251953 C-58.32953125 14.40251953 -60.63953125 15.72251953 -63.01953125 17.08251953 C-62.04270386 16.61289795 -62.04270386 16.61289795 -61.04614258 16.13378906 C-54.07255237 12.86219773 -47.0529658 10.25984983 -39.70703125 7.95751953 C-38.61052246 7.61132568 -37.51401367 7.26513184 -36.38427734 6.90844727 C-24.34425492 3.16632631 -12.62995416 0.51606921 0 0 Z " fill="#F6EEE1" transform="translate(497.01953125,209.91748046875)"/>
<path d="M0 0 C1.62808594 -0.03577148 1.62808594 -0.03577148 3.2890625 -0.07226562 C15.00615306 -0.05129231 24.83179102 4.43364118 34 11.5625 C34.61488281 12.03945313 35.22976563 12.51640625 35.86328125 13.0078125 C44.21607793 20.37901667 49.24991582 32.63452695 50.28125 43.53515625 C50.6774946 51.68788887 50.6774946 51.68788887 47.95381165 55.20402527 C44.30701063 58.11581826 41.65061908 58.24162193 37.18041992 58.13012695 C36.02352661 58.13122215 36.02352661 58.13122215 34.84326172 58.13233948 C32.30493778 58.12886796 29.76847033 58.09003062 27.23046875 58.05078125 C25.4664256 58.0414515 23.70236947 58.03433615 21.93830872 58.02934265 C17.30359904 58.01028548 12.66967742 57.96119609 8.03527832 57.90582275 C3.30292419 57.85460241 -1.42955773 57.83182268 -6.16210938 57.80664062 C-15.44175179 57.75307581 -24.72081027 57.66777877 -34 57.5625 C-33.8632239 59.78808296 -33.72005286 62.01327347 -33.57421875 64.23828125 C-33.49518311 65.47747314 -33.41614746 66.71666504 -33.3347168 67.9934082 C-32.28817138 79.15274264 -27.27653715 90.37714408 -19 98.0625 C-8.18658503 106.17256123 3.01134372 106.47165384 16 105.5625 C30.02232189 103.17475104 40.45395258 93.39612578 49 82.5625 C51.4696924 79.02657493 53.6364253 75.38324391 55.76025391 71.63183594 C57.2108904 69.21048995 58.79580051 66.9017929 60.38671875 64.5703125 C70.05968328 49.80665795 72.28492513 37.09537585 70 19.5625 C69.505 18.0775 69.505 18.0775 69 16.5625 C66.43106162 15.27803081 64.23423663 15.23272856 61.375 15 C60.37210938 14.91621094 59.36921875 14.83242188 58.3359375 14.74609375 C57.17964844 14.65521484 57.17964844 14.65521484 56 14.5625 C56 13.2425 56 11.9225 56 10.5625 C62.07976755 8.2622387 68.1838338 6.04151743 74.3125 3.875 C75.65151367 3.39450195 75.65151367 3.39450195 77.01757812 2.90429688 C77.87416016 2.60201172 78.73074219 2.29972656 79.61328125 1.98828125 C80.38454346 1.71411377 81.15580566 1.43994629 81.95043945 1.1574707 C84 0.5625 84 0.5625 87 0.5625 C87.33 6.5025 87.66 12.4425 88 18.5625 C89.2375 17.221875 90.475 15.88125 91.75 14.5 C100.79578497 5.46846036 111.06598277 0.42434408 123.8503418 0.18237305 C136.62617168 0.20966905 148.36092905 2.26225881 157.9375 11.4140625 C163.85681077 17.80198537 166.45868355 23.62964537 166.40063477 32.36206055 C166.40761383 33.1076825 166.4145929 33.85330444 166.42178345 34.621521 C166.44163525 37.06420457 166.44125954 39.50646202 166.44140625 41.94921875 C166.45318751 43.65600208 166.46655357 45.36277514 166.48143005 47.0695343 C166.51751483 51.54777247 166.53779021 56.02591951 166.55297852 60.50427246 C166.5778696 67.68215998 166.61746335 74.85984634 166.67487907 82.03754616 C166.6911925 84.54141085 166.69498358 87.04508472 166.69789124 89.54899597 C166.70766678 91.08304169 166.71792993 92.61708441 166.72875977 94.15112305 C166.72620682 94.8457515 166.72365387 95.54037994 166.72102356 96.25605774 C166.75880407 99.81539418 166.8559485 102.63387955 169 105.5625 C172.08918312 106.7046526 172.08918312 106.7046526 175.625 107.3125 C177.40777344 107.67601562 177.40777344 107.67601562 179.2265625 108.046875 C180.14179687 108.21703125 181.05703125 108.3871875 182 108.5625 C182.33 109.8825 182.66 111.2025 183 112.5625 C178.77106532 112.67883933 174.54254326 112.74979952 170.3125 112.8125 C169.11431641 112.84601563 167.91613281 112.87953125 166.68164062 112.9140625 C165.52470703 112.92695312 164.36777344 112.93984375 163.17578125 112.953125 C162.11270752 112.97407227 161.04963379 112.99501953 159.9543457 113.01660156 C156.10725622 112.42527965 154.64990335 111.41282565 152 108.5625 C149.38092383 103.37913958 148.62929377 98.61875985 148.64697266 92.8046875 C148.64481247 92.07509827 148.64265228 91.34550903 148.64042664 90.59381104 C148.63736128 89.0246373 148.64088099 87.45543911 148.65044022 85.8862915 C148.66429099 83.39642604 148.65767608 80.90734757 148.64559937 78.41748047 C148.6147909 71.34402072 148.61950386 64.27075064 148.63964844 57.19726562 C148.65060061 52.85656527 148.6373073 48.51646008 148.60975266 44.17584229 C148.60433596 42.53013475 148.60831475 40.88436679 148.62215042 39.2387085 C148.94020061 27.93481419 148.94020061 27.93481419 144.3236084 17.89012146 C142.35603135 15.9165789 140.42938335 14.72252557 137.875 13.625 C136.60269531 13.05458984 136.60269531 13.05458984 135.3046875 12.47265625 C127.62280663 9.43896431 118.59405528 9.25645125 110.75 12 C104.89754126 14.72475128 100.49265906 19.01062962 96 23.5625 C95.31035156 24.24183594 94.62070312 24.92117188 93.91015625 25.62109375 C84.78951234 35.17519401 79.09522336 47.29991146 73.125 58.9375 C65.92431288 72.93012161 58.27300001 86.41616291 47 97.5625 C46.41476562 98.18125 45.82953125 98.8 45.2265625 99.4375 C32.77903328 111.61324911 17.83396031 113.91967717 1.203125 113.94311523 C-14.35815801 113.75129813 -26.10404874 109.67653346 -38 99.5625 C-42.80740638 94.58611624 -46.40240848 88.96171687 -49 82.5625 C-49.37253906 81.69882812 -49.74507812 80.83515625 -50.12890625 79.9453125 C-55.4454628 65.68138029 -55.39002436 45.55130691 -49.33203125 31.5703125 C-43.34497305 18.57817198 -36.02423314 9.14219799 -22.41943359 3.49047852 C-14.84369151 0.69518785 -8.03751358 -0.0811388 0 0 Z " fill="#F5EDE0" transform="translate(643,700.4375)"/>
<path d="M0 0 C16.83 0 33.66 0 51 0 C51 1.32 51 2.64 51 4 C48.17791594 5.41104203 45.41355876 5.27425886 42.2890625 5.42578125 C39.15378148 6.21227666 38.02397721 7.49901664 36 10 C35.38625299 12.81565367 35.38625299 12.81565367 35.45410156 15.96191406 C35.43428223 17.17959473 35.41446289 18.39727539 35.39404297 19.65185547 C35.39291504 20.92689941 35.39178711 22.20194336 35.390625 23.515625 C35.37499512 24.69108887 35.35936523 25.86655273 35.34326172 27.07763672 C35.29066296 31.46821948 35.27239525 35.8591593 35.25 40.25 C35.12625 54.97625 35.12625 54.97625 35 70 C64.7 70 94.4 70 125 70 C124.87625 55.27375 124.87625 55.27375 124.75 40.25 C124.73420898 37.15399414 124.71841797 34.05798828 124.70214844 30.86816406 C124.6727873 28.41729848 124.64196307 25.9664498 124.609375 23.515625 C124.60768311 21.60305908 124.60768311 21.60305908 124.60595703 19.65185547 C124.57622803 17.82533447 124.57622803 17.82533447 124.54589844 15.96191406 C124.53701599 14.90490295 124.52813354 13.84789185 124.51898193 12.7588501 C123.8729879 9.32481784 122.71039427 8.13761335 120 6 C117.72574026 5.34999422 117.72574026 5.34999422 115.375 5.3125 C111.13157895 5.06578947 111.13157895 5.06578947 109 4 C109 2.68 109 1.36 109 0 C125.83 0 142.66 0 160 0 C159.67 1.32 159.34 2.64 159 4 C156.15485529 5.42257235 153.33922641 5.32637462 150.19140625 5.5234375 C147.56287256 6.09506158 146.66732494 6.92986567 145 9 C143.73502864 11.52994271 143.87131482 13.27814697 143.86628723 16.1109314 C143.86202225 17.19332596 143.85775726 18.27572052 143.85336304 19.39091492 C143.85381622 20.58368546 143.85426941 21.77645599 143.85473633 23.00537109 C143.85137772 24.25744858 143.8480191 25.50952606 143.84455872 26.79954529 C143.83667014 30.23968685 143.83338017 33.67976806 143.83274293 37.11991453 C143.83179438 39.99019466 143.82811665 42.86046897 143.82457083 45.73074687 C143.8164223 52.50246704 143.81398694 59.27417392 143.81469727 66.04589844 C143.81529796 73.03388686 143.80474873 80.02179806 143.7889536 87.00976694 C143.77588159 93.00642682 143.77051324 99.00306145 143.77115268 104.99973547 C143.77140779 108.58249665 143.76854918 112.16518925 143.75797462 115.74793625 C143.74650284 119.74395787 143.75103838 123.73980635 143.75708008 127.73583984 C143.75146057 128.92456192 143.74584106 130.113284 143.74005127 131.33802795 C143.74424576 132.42606216 143.74844025 133.51409637 143.75276184 134.63510132 C143.75221707 135.58010687 143.75167231 136.52511242 143.75111103 137.4987545 C144.01486442 140.14938212 144.58459217 141.75816194 146 144 C148.83440294 145.87748912 151.39769712 146.32920857 154.75 146.625 C155.54921875 146.69976563 156.3484375 146.77453125 157.171875 146.8515625 C158.07679688 146.92503906 158.07679688 146.92503906 159 147 C159.33 148.32 159.66 149.64 160 151 C143.17 151 126.34 151 109 151 C109 149.68 109 148.36 109 147 C109.88751953 146.94392578 109.88751953 146.94392578 110.79296875 146.88671875 C115.56797099 146.48945103 119.1045504 146.04332 123 143 C124.40020855 140.19958289 124.16363335 137.84697961 124.20532227 134.71435547 C124.21535499 134.05991014 124.22538771 133.40546482 124.23572445 132.73118782 C124.26714076 130.60989055 124.29189337 128.48857462 124.31640625 126.3671875 C124.33505737 125.07176025 124.3537085 123.77633301 124.3729248 122.44165039 C124.44140568 117.58617198 124.50143719 112.73057737 124.5625 107.875 C124.706875 97.02625 124.85125 86.1775 125 75 C94.97 75 64.94 75 34 75 C34.12375 85.291875 34.2475 95.58375 34.375 106.1875 C34.40899902 109.43102295 34.44299805 112.6745459 34.47802734 116.01635742 C34.51323336 118.58773844 34.54915461 121.15910981 34.5859375 123.73046875 C34.59146637 124.39500565 34.59699524 125.05954254 34.60269165 125.74421692 C34.61981848 127.71263383 34.65026763 129.68092081 34.68115234 131.64916992 C34.69447601 132.7572551 34.70779968 133.86534027 34.7215271 135.00700378 C35.10721992 139.15238798 35.84622611 142.02104034 39.0625 144.75 C42.99156057 146.42194067 46.76708478 146.73256091 51 147 C51 148.32 51 149.64 51 151 C34.17 151 17.34 151 0 151 C0.495 149.02 0.495 149.02 1 147 C1.75925781 146.89042969 2.51851562 146.78085937 3.30078125 146.66796875 C4.29464844 146.50941406 5.28851563 146.35085938 6.3125 146.1875 C7.29863281 146.03667969 8.28476563 145.88585937 9.30078125 145.73046875 C12.16330631 144.95580567 13.20620675 144.30464699 15 142 C16.2621892 139.4756216 16.13719659 137.72239797 16.15390015 134.89579773 C16.16250061 133.81484833 16.17110107 132.73389893 16.17996216 131.62019348 C16.18422211 130.42899399 16.18848206 129.23779449 16.19287109 128.01049805 C16.20104858 126.76002686 16.20922607 125.50955566 16.21765137 124.22119141 C16.24253854 120.06803714 16.25917894 115.91491931 16.2734375 111.76171875 C16.27879708 110.33229885 16.28417459 108.90287901 16.28956985 107.47345924 C16.31119867 101.52773633 16.32993562 95.58201614 16.34119225 89.63626385 C16.35743328 81.11366068 16.39061403 72.5915133 16.44759309 64.06908196 C16.48628645 58.07750556 16.50582416 52.08605109 16.51111281 46.09435302 C16.51476714 42.51529285 16.52679574 38.93671878 16.55921555 35.35779381 C16.59487349 31.36414842 16.59092701 27.37148318 16.58349609 23.37768555 C16.59990143 22.19255875 16.61630676 21.00743195 16.63320923 19.78639221 C16.64692053 13.331581 16.64692053 13.331581 13.63076782 7.78425598 C10.86781297 5.91034728 8.97206272 5.16923586 5.6875 4.6875 C4.80449219 4.54699219 3.92148438 4.40648437 3.01171875 4.26171875 C2.34785156 4.17535156 1.68398437 4.08898437 1 4 C0.67 2.68 0.34 1.36 0 0 Z " fill="#F8EFE2" transform="translate(198,661)"/>
<path d="M0 0 C7.24623274 5.59358317 13.97042229 16.14555767 15.64453125 25.2734375 C16.83492477 41.01909722 16.83492477 41.01909722 13.81640625 45.546875 C10.22377566 46.74441853 6.96184018 46.67886253 3.22387695 46.66040039 C2.06742172 46.66061943 2.06742172 46.66061943 0.88760376 46.6608429 C-1.66089694 46.66014619 -4.20932457 46.6523651 -6.7578125 46.64453125 C-8.52472392 46.64266621 -10.29163585 46.64124271 -12.05854797 46.64024353 C-16.70937528 46.63642512 -21.36017136 46.62660058 -26.01098633 46.61553955 C-30.75666888 46.60531091 -35.50235648 46.60074279 -40.24804688 46.59570312 C-49.55990955 46.58497773 -58.87174905 46.56790939 -68.18359375 46.546875 C-68.04736691 48.78500674 -67.90437865 51.0227276 -67.75854492 53.26025391 C-67.67964523 54.50642487 -67.60074554 55.75259583 -67.51945496 57.03652954 C-67.10900671 61.32644193 -66.13872001 64.96305742 -64.49609375 68.921875 C-64.22772705 69.59468506 -63.95936035 70.26749512 -63.68286133 70.96069336 C-59.55720602 80.89916906 -53.14881881 88.55421176 -43.1015625 92.87109375 C-30.84220768 97.01571549 -19.44158117 96.53785491 -7.51953125 91.3984375 C-0.40154946 87.58602001 4.08042488 81.97591251 8.81640625 75.546875 C10.79640625 76.041875 10.79640625 76.041875 12.81640625 76.546875 C13.46875 78.30859375 13.46875 78.30859375 13.81640625 80.546875 C8.29468763 91.75203621 -2.91941486 97.65276211 -14.18359375 101.546875 C-29.8556948 105.19776218 -48.02338346 103.76175401 -62.13671875 95.90234375 C-69.78440676 90.83059856 -76.15371396 84.86662683 -80.18359375 76.546875 C-80.8178125 75.309375 -80.8178125 75.309375 -81.46484375 74.046875 C-88.38326638 59.88824265 -89.84315547 41.65284261 -85.28515625 26.4453125 C-79.76601417 11.92331454 -72.36420069 0.80482125 -58.18359375 -6.453125 C-38.3885589 -14.20024655 -17.48938882 -11.6387346 0 0 Z " fill="#F6EDE0" transform="translate(450.18359375,711.453125)"/>
<path d="M0 0 C0.00238835 0.83213925 0.00477671 1.66427851 0.00723743 2.5216341 C0.06632415 22.75153774 0.14183342 42.98132162 0.23571491 63.21109486 C0.28071721 72.99399045 0.32012157 82.77684927 0.34643555 92.55981445 C0.3693798 101.08474416 0.40273757 109.60955794 0.44870156 118.13439578 C0.47268216 122.64997159 0.49137915 127.16543225 0.49761391 131.68107033 C0.50364299 135.92872917 0.52356335 140.1760932 0.55427551 144.42364311 C0.56309082 145.98493023 0.56677113 147.54625582 0.56500816 149.10756683 C0.56336392 151.23508523 0.57997994 153.36169575 0.60127258 155.48908997 C0.60588155 156.68096829 0.61049051 157.87284662 0.61523914 159.10084248 C0.76344999 161.98654888 0.76344999 161.98654888 2.35621929 163.86127758 C4.70185249 165.48620547 6.88374322 165.75869014 9.6875 166.1875 C10.68136719 166.34605469 11.67523437 166.50460937 12.69921875 166.66796875 C13.45847656 166.77753906 14.21773437 166.88710938 15 167 C15.33 168.32 15.66 169.64 16 171 C-0.5 171 -17 171 -34 171 C-33.505 169.02 -33.505 169.02 -33 167 C-31.62714844 166.72736328 -31.62714844 166.72736328 -30.2265625 166.44921875 C-28.44378906 166.07216797 -28.44378906 166.07216797 -26.625 165.6875 C-25.44164062 165.44386719 -24.25828125 165.20023438 -23.0390625 164.94921875 C-19.72074996 164.26236391 -19.72074996 164.26236391 -18 161 C-17.69470633 158.31366857 -17.69470633 158.31366857 -17.73930359 155.23059082 C-17.72867638 153.42607201 -17.72867638 153.42607201 -17.71783447 151.58509827 C-17.72012834 150.25009118 -17.72263804 148.91508445 -17.7253418 147.58007812 C-17.72099515 146.17565133 -17.71581215 144.77122691 -17.70985413 143.36680603 C-17.69644889 139.55076158 -17.69588705 135.73481608 -17.69841743 131.91875267 C-17.69948594 128.73517128 -17.69460693 125.55161002 -17.689812 122.36803293 C-17.67871191 114.85943508 -17.67828247 107.35088725 -17.68432617 99.84228516 C-17.69036976 92.09020739 -17.6780464 84.33831096 -17.6567561 76.58626413 C-17.63915867 69.93481998 -17.63313573 63.28343365 -17.63639385 56.63196707 C-17.63820956 52.65743169 -17.63554182 48.6830257 -17.62167931 44.70851135 C-17.6091354 40.97219468 -17.61101212 37.23616147 -17.62409019 33.49984932 C-17.62646294 32.12720712 -17.62369639 30.75454517 -17.61546707 29.38192558 C-17.60505801 27.51111258 -17.61487021 25.64021934 -17.6257782 23.76940918 C-17.62561046 22.72153984 -17.62544271 21.6736705 -17.62526989 20.59404755 C-17.79419526 17.97560914 -17.79419526 17.97560914 -19.35468769 16.17139435 C-21.73841033 14.47428237 -23.79541586 14.4826226 -26.6875 14.3125 C-27.68136719 14.24675781 -28.67523437 14.18101562 -29.69921875 14.11328125 C-30.83810547 14.05720703 -30.83810547 14.05720703 -32 14 C-31.703125 12.09375 -31.703125 12.09375 -31 10 C-28.30188116 8.75471438 -25.82973555 7.85619835 -23 7 C-21.42798828 6.52046875 -21.42798828 6.52046875 -19.82421875 6.03125 C-17.57262157 5.34564255 -15.32001805 4.66333105 -13.06640625 3.984375 C-10.58208952 3.18686186 -8.24976001 2.3188941 -5.875 1.25 C-3 0 -3 0 0 0 Z " fill="#F4EBDE" transform="translate(568,642)"/>
<path d="M0 0 C7.61990446 4.55491496 12.60915114 10.39447799 15.5859375 18.78125 C16.91512982 24.22311975 17.83916812 30.40962509 15.19140625 35.55859375 C13.45872369 37.70259561 11.72084964 39.26457518 9.25 40.5 C7.30955723 40.59128293 5.3659244 40.61752248 3.42333984 40.61352539 C2.20222504 40.61344986 0.98111023 40.61337433 -0.27700806 40.61329651 C-1.61435995 40.60818952 -2.95171143 40.60297352 -4.2890625 40.59765625 C-5.65383859 40.5957914 -7.01861534 40.59436781 -8.38339233 40.59336853 C-11.97715093 40.58954863 -15.57086917 40.57972283 -19.16461182 40.56866455 C-22.83108982 40.55843911 -26.49757435 40.55386848 -30.1640625 40.54882812 C-37.35939341 40.5381001 -44.55469105 40.52102999 -51.75 40.5 C-51.76207067 39.05967239 -51.77068206 37.61931552 -51.77783203 36.17895508 C-51.78299835 35.37686111 -51.78816467 34.57476715 -51.79348755 33.74836731 C-51.60777069 24.14654495 -46.86509614 13.23998111 -40.640625 6.0703125 C-29.93531352 -4.00744623 -13.42808002 -6.22235526 0 0 Z " fill="#553A2B" transform="translate(660.75,710.5)"/>
<path d="M0 0 C6.93268263 5.78060418 10.77914203 10.71314754 11.671875 19.7734375 C12.10959472 29.82631896 12.10959472 29.82631896 9.3984375 33.9375 C6.97069169 36.38336331 6.13756999 37.00826764 2.7104187 37.16712952 C1.61343658 37.16490891 0.51645447 37.16268829 -0.61376953 37.16040039 C-1.85490509 37.16032486 -3.09604065 37.16024933 -4.37478638 37.16017151 C-5.73423299 37.1550645 -7.09367919 37.1498485 -8.453125 37.14453125 C-9.84032134 37.14266642 -11.22751834 37.14124282 -12.61471558 37.14024353 C-16.26765762 37.13642348 -19.92055998 37.12659755 -23.57348633 37.11553955 C-27.30028751 37.10531444 -31.02709509 37.10074355 -34.75390625 37.09570312 C-42.06772644 37.08497483 -49.38151391 37.06790454 -56.6953125 37.046875 C-56.41287346 34.51191374 -56.12117938 31.97857986 -55.82421875 29.4453125 C-55.74610962 28.73560303 -55.66800049 28.02589355 -55.58752441 27.29467773 C-54.20662342 15.70841927 -49.47002473 6.80912044 -40.6953125 -0.953125 C-28.85971692 -9.06588779 -11.40309429 -8.2631118 0 0 Z " fill="#553A2B" transform="translate(438.6953125,713.953125)"/>
<path d="M0 0 C0.00808685 1.24170456 0.01617371 2.48340912 0.02450562 3.76274109 C0.10196653 15.46061082 0.18970586 27.15836424 0.28752708 38.85608196 C0.33748793 44.8700956 0.38381817 50.88409168 0.421875 56.89819336 C0.45873021 62.70135741 0.50509114 68.50437457 0.55806351 74.3074131 C0.57660613 76.52216835 0.59171457 78.73695509 0.60334396 80.95175743 C0.6202084 84.05222004 0.6492445 87.15234635 0.68115234 90.25268555 C0.68331253 91.16978302 0.68547272 92.08688049 0.68769836 93.0317688 C0.73105038 99.26762811 0.73105038 99.26762811 3 105 C6.07590309 106.25967896 6.07590309 106.25967896 9.625 106.8125 C10.81351563 107.04582031 12.00203125 107.27914062 13.2265625 107.51953125 C14.14179687 107.67808594 15.05703125 107.83664062 16 108 C16.33 109.32 16.66 110.64 17 112 C0.5 112 -16 112 -33 112 C-32.67 110.68 -32.34 109.36 -32 108 C-31.39671875 107.95101562 -30.7934375 107.90203125 -30.171875 107.8515625 C-28.97304688 107.73941406 -28.97304688 107.73941406 -27.75 107.625 C-26.56664062 107.52058594 -26.56664062 107.52058594 -25.359375 107.4140625 C-22.78898643 106.96296782 -21.14604344 106.49489351 -19 105 C-16.77465967 100.77411589 -16.70956613 96.72884334 -16.7253418 92.06030273 C-16.72023087 91.27595856 -16.71511993 90.49161438 -16.70985413 89.6835022 C-16.69599409 87.10012102 -16.69691173 84.5170076 -16.69921875 81.93359375 C-16.69533074 80.13428142 -16.69099585 78.33497001 -16.68623352 76.53565979 C-16.6787797 72.76894145 -16.67905716 69.00231687 -16.68432617 65.2355957 C-16.69012927 60.4078253 -16.67316556 55.58043749 -16.6499815 50.75273037 C-16.63525637 47.03898372 -16.63437062 43.32532958 -16.63749123 39.61155891 C-16.63697771 37.83135277 -16.63173436 36.05114149 -16.62167931 34.27096367 C-16.60935147 31.78382255 -16.61608349 29.29743171 -16.62768555 26.81030273 C-16.62004181 26.07512924 -16.61239807 25.33995575 -16.60452271 24.58250427 C-16.63670405 21.46352468 -16.83218603 19.30353133 -18.35456848 16.54994202 C-20.69592883 14.34445808 -22.52056412 14.39903228 -25.6875 14.25 C-26.68136719 14.19328125 -27.67523438 14.1365625 -28.69921875 14.078125 C-29.83810547 14.03945313 -29.83810547 14.03945313 -31 14 C-31 12.68 -31 11.36 -31 10 C-30.29391602 9.76812988 -29.58783203 9.53625977 -28.86035156 9.29736328 C-25.65585067 8.2430709 -22.45291875 7.18408869 -19.25 6.125 C-18.13882812 5.76019531 -17.02765625 5.39539063 -15.8828125 5.01953125 C-14.81289063 4.66503906 -13.74296875 4.31054688 -12.640625 3.9453125 C-11.65610352 3.62062988 -10.67158203 3.29594727 -9.65722656 2.96142578 C-7.03604491 2.07837341 -7.03604491 2.07837341 -4.83496094 0.87841797 C-3 0 -3 0 0 0 Z " fill="#F8F0E3" transform="translate(507,701)"/>
<path d="M0 0 C8.96962253 4.89252138 13.76479876 11.49629848 17.25390625 21.12890625 C18.95533024 27.5895582 18.62192279 34.24602512 18.4375 40.875 C17.58418091 40.66605103 17.58418091 40.66605103 16.71362305 40.45288086 C8.42031826 38.5907478 0.27579708 38.49736485 -8.19335938 38.39648438 C-15.46883896 38.22255163 -20.83202866 37.86628535 -26.671875 33.18359375 C-27.21328125 32.56613281 -27.7546875 31.94867187 -28.3125 31.3125 C-28.86421875 30.71308594 -29.4159375 30.11367188 -29.984375 29.49609375 C-32.35260865 25.56271559 -33.38484393 21.28908836 -34.5625 16.875 C-30.7500662 16.81627072 -26.93775094 16.78116084 -23.125 16.75 C-22.05572266 16.73324219 -20.98644531 16.71648438 -19.88476562 16.69921875 C-13.47543107 16.66001793 -7.73868525 17.1656395 -1.5625 18.875 C-0.22972199 19.2105468 1.10345899 19.54451025 2.4375 19.875 C-7.12947821 11.02554515 -16.21505736 11.49615801 -28.5625 11.875 C-26.01383091 5.88498076 -20.62091393 2.97772175 -15.0625 0 C-9.54323502 -1.77404946 -5.52519368 -1.74479801 0 0 Z " fill="#F7EEE1" transform="translate(768.5625,721.125)"/>
<path d="M0 0 C2.125 0.375 2.125 0.375 4 1 C4.00546844 1.97932747 4.00546844 1.97932747 4.01104736 2.97843933 C4.0528683 9.77578282 4.12221157 16.57245083 4.20751953 23.36938477 C4.23573948 25.90577437 4.25694885 28.44225208 4.27099609 30.97875977 C4.29241043 34.62562199 4.3390562 38.27142364 4.390625 41.91796875 C4.39185364 43.05147263 4.39308228 44.1849765 4.39434814 45.35282898 C4.48026264 51.56671119 4.48026264 51.56671119 6.86328125 57.19726562 C9.50028547 59.42208729 11.34794207 59.86699241 14.75 60.3125 C15.73484375 60.45300781 16.7196875 60.59351563 17.734375 60.73828125 C18.48203125 60.82464844 19.2296875 60.91101563 20 61 C20.495 62.98 20.495 62.98 21 65 C4.5 65 -12 65 -29 65 C-28.67 63.68 -28.34 62.36 -28 61 C-25.15485529 59.57742765 -22.33922641 59.67362538 -19.19140625 59.4765625 C-16.54280623 58.90057462 -15.64514586 58.12309343 -14 56 C-12.85093974 52.55281923 -12.95372471 50.00757602 -13.03515625 46.375 C-13.20695511 29.33051052 -12.40159474 16.29570259 -2 2 C-1.34 1.34 -0.68 0.68 0 0 Z " fill="#F8F0E2" transform="translate(726,748)"/>
<path d="M0 0 C0.33 0 0.66 0 1 0 C1 18.15 1 36.3 1 55 C-18.14 55 -37.28 55 -57 55 C-57 54.67 -57 54.34 -57 54 C-56.12859375 53.84144531 -55.2571875 53.68289063 -54.359375 53.51953125 C-36.48119077 50.0174194 -22.13193077 42.81451656 -11 28 C-5.17609523 19.14305176 -2.27908142 10.2346327 0 0 Z " fill="#FCFBFB" transform="translate(1023,969)"/>
<path d="M0 0 C18.81 0 37.62 0 57 0 C57 19.14 57 38.28 57 58 C56.67 58 56.34 58 56 58 C55.91363281 57.27296875 55.82726562 56.5459375 55.73828125 55.796875 C53.44802467 39.40788295 45.83473699 24.36583791 32.6171875 14.16015625 C22.59620787 6.91256701 12.37448795 2.34505304 0 1 C0 0.67 0 0.34 0 0 Z " fill="#FCFCFB" transform="translate(967,0)"/>
<path d="M0 0 C0.33 0 0.66 0 1 0 C1.12375 0.969375 1.2475 1.93875 1.375 2.9375 C3.9414263 20.50424556 11.57218058 35.1262491 25.7265625 46.1171875 C34.6775019 52.12747246 44.41762155 56.05989728 55 58 C55 58.33 55 58.66 55 59 C36.85 59 18.7 59 0 59 C0 39.53 0 20.06 0 0 Z " fill="#FCFCFC" transform="translate(0,965)"/>
<path d="M0 0 C18.48 0 36.96 0 56 0 C56 0.33 56 0.66 56 1 C55.2471875 1.12375 54.494375 1.2475 53.71875 1.375 C36.69571415 4.68044386 22.53381694 12.87333835 12.125 26.9375 C6.16157274 36.09663948 3.08998256 45.31220302 1 56 C0.67 56 0.34 56 0 56 C0 37.52 0 19.04 0 0 Z " fill="#FFFFFF" transform="translate(0,0)"/>
<path d="M0 0 C2.93423195 1.79646854 4.47205355 2.9441071 6 6 C7.02806143 13.63702779 5.33574184 19.6490542 1 26 C-2.73255448 28.48836965 -4.58440935 28.54226552 -9 28 C-13.18998574 24.15917974 -15.59701488 19.10249994 -16.32421875 13.50390625 C-16.51135245 9.16111393 -16.43341725 6.70791484 -14.125 2.9375 C-9.92660985 -0.89044396 -5.46648071 -0.64463216 0 0 Z " fill="#F6EDE0" transform="translate(503,661)"/>
<path d="M0 0 C3.50916191 1.3326779 6.85181477 2.89715492 10.21362305 4.56347656 C45.64428969 21.94535978 79.04902524 28.77506566 118 23 C118.99 24.485 118.99 24.485 120 26 C79.27325658 34.56326326 41.8545157 27.42761374 6.41943359 5.39550781 C1.92685745 2.45424285 1.92685745 2.45424285 0 1 C0 0.67 0 0.34 0 0 Z " fill="#634A3B" transform="translate(426,527)"/>
<path d="M0 0 C-0.91942383 0.30067383 -0.91942383 0.30067383 -1.85742188 0.60742188 C-14.77206809 4.86722665 -27.08480877 9.42038164 -39 16 C-39.90492188 16.48984375 -40.80984375 16.9796875 -41.7421875 17.484375 C-55.02555723 25.03849581 -66.04635656 35.48571432 -77 46 C-77 40.73090357 -72.57357435 37.57357435 -69 34 C-65.46395168 30.81922184 -61.77456749 27.89188439 -58 25 C-57.48727539 24.5963623 -56.97455078 24.19272461 -56.44628906 23.77685547 C-41.67745333 12.20507022 -24.86951807 5.33987733 -7 0 C-5.98957642 -0.31227539 -5.98957642 -0.31227539 -4.95874023 -0.63085938 C-3 -1 -3 -1 0 0 Z " fill="#725A4C" transform="translate(466,228)"/>
<path d="M0 0 C2.76262387 3.40015245 4.69923657 7.12133721 6.6875 11 C17.35285608 31.31063317 31.93865666 49.84079874 50 64 C51.23366077 65.01539771 52.4638326 66.03508115 53.6875 67.0625 C54.450625 67.701875 55.21375 68.34125 56 69 C48.08011961 69 39.52783928 58.14007894 34 53 C33.34386719 52.40960938 32.68773437 51.81921875 32.01171875 51.2109375 C19.96512285 39.88763618 11.5243111 25.55612184 4 11 C3.42185547 9.90945313 3.42185547 9.90945313 2.83203125 8.796875 C2.46464844 8.09046875 2.09726562 7.3840625 1.71875 6.65625 C1.2227832 5.70975586 1.2227832 5.70975586 0.71679688 4.74414062 C0 3 0 3 0 0 Z " fill="#735C4D" transform="translate(367,455)"/>
<path d="M0 0 C0.33 0 0.66 0 1 0 C1.28519815 6.46198957 0.27943166 11.95549758 -1.375 18.1875 C-1.70757813 19.50137695 -1.70757813 19.50137695 -2.046875 20.84179688 C-3.12311631 25.01698009 -4.24827575 29.04634201 -6 33 C-6.99 32.67 -7.98 32.34 -9 32 C-8.36265035 27.37567417 -7.1568721 23.21779278 -5.625 18.8125 C-3.49517069 12.60184682 -1.62730317 6.36368151 0 0 Z " fill="#F0E6D9" transform="translate(698,434)"/>
<path d="M0 0 C10.70156928 6.02444458 18.10625281 15.09342996 25 25 C24.67 25.66 24.34 26.32 24 27 C23.37339478 26.32795532 23.37339478 26.32795532 22.73413086 25.64233398 C20.80320328 23.57285496 18.87036294 21.50517147 16.9375 19.4375 C15.95233398 18.38079102 15.95233398 18.38079102 14.94726562 17.30273438 C8.1891883 9.2483897 8.1891883 9.2483897 0 3 C0 2.01 0 1.02 0 0 Z " fill="#644A3C" transform="translate(611,261)"/>
<path d="M0 0 C0 0.99 0 1.98 0 3 C-1.98108592 4.72467418 -3.94734815 6.26771674 -6.0625 7.8125 C-14.2437822 13.98626893 -21.61140045 20.91149763 -29 28 C-29 23.49343605 -26.43681439 21.68906996 -23.47265625 18.46875 C-16.39159446 11.39887472 -8.27506558 5.58252797 0 0 Z " fill="#664D3E" transform="translate(418,246)"/>
<path d="M0 0 C10.60980693 4.87351571 20.87416292 16.25304894 27 26 C22.4583098 25.63494689 20.23701938 22.33615984 17.4375 19.125 C16.38100276 17.94343455 15.32236033 16.76378416 14.26171875 15.5859375 C13.72466309 14.9887793 13.18760742 14.39162109 12.63427734 13.77636719 C9.22029397 10.06556004 5.58938737 6.57041817 1.984375 3.046875 C0 1 0 1 0 0 Z " fill="#E9E0D2" transform="translate(607,261)"/>
<path d="M0 0 C0.66 0 1.32 0 2 0 C3.36656253 1.57980635 4.66735132 3.21668653 5.9375 4.875 C13.13885399 13.86802312 21.78459562 21.12826636 31 28 C23.08745386 28 14.51816482 17.14674988 9 12 C8.21625 11.27039063 7.4325 10.54078125 6.625 9.7890625 C5.903125 9.09554688 5.18125 8.40203125 4.4375 7.6875 C3.79683594 7.07261719 3.15617187 6.45773437 2.49609375 5.82421875 C0.88669373 3.86184327 0.39985744 2.48130714 0 0 Z " fill="#765F51" transform="translate(392,496)"/>
<path d="M0 0 C-2.65186253 3.30286127 -5.74044949 4.1360401 -9.6875 5.4375 C-13.86010223 6.85566749 -17.80716347 8.28280362 -21.6875 10.375 C-25 12 -25 12 -28 11 C-26.37750059 10.16180842 -24.75191503 9.3295884 -23.125 8.5 C-22.22007812 8.0359375 -21.31515625 7.571875 -20.3828125 7.09375 C-18 6 -18 6 -16 6 C-16 5.34 -16 4.68 -16 4 C-14.08959948 3.1319092 -12.17139263 2.28098217 -10.25 1.4375 C-9.18265625 0.96183594 -8.1153125 0.48617187 -7.015625 -0.00390625 C-4.01630163 -0.9946154 -2.86578759 -1.16161779 0 0 Z " fill="#877163" transform="translate(457,217)"/>
<path d="M0 0 C10.5514644 0.55534023 20.68110751 4.10436063 30 9 C26.3988082 10.20039727 25.77727064 9.72923499 22.375 8.3125 C14.78733703 5.38159923 6.92452716 3.74655464 -1 2 C-0.67 1.34 -0.34 0.68 0 0 Z " fill="#DFD4C7" transform="translate(536,242)"/>
<path d="M0 0 C0.66 0.66 1.32 1.32 2 2 C-7.36126309 3.22914592 -16.53423442 4.36799953 -26 4 C-26 3.67 -26 3.34 -26 3 C-22.4192122 2.29876984 -18.8350783 1.6164242 -15.25 0.9375 C-13.72632813 0.63875977 -13.72632813 0.63875977 -12.171875 0.33398438 C-10.70234375 0.05844727 -10.70234375 0.05844727 -9.203125 -0.22265625 C-8.30239258 -0.39547119 -7.40166016 -0.56828613 -6.47363281 -0.74633789 C-3.95163858 -1.00495929 -2.36305914 -0.88438418 0 0 Z " fill="#786152" transform="translate(540,575)"/>
<path d="M0 0 C-1.62249941 0.83819158 -3.24808497 1.6704116 -4.875 2.5 C-5.77992188 2.9640625 -6.68484375 3.428125 -7.6171875 3.90625 C-10 5 -10 5 -12 5 C-12 5.66 -12 6.32 -12 7 C-18.93 10.465 -18.93 10.465 -26 14 C-26 13.01 -26 12.02 -26 11 C-22.23774923 8.96287451 -18.46395044 6.94816219 -14.6875 4.9375 C-13.61564453 4.35677734 -12.54378906 3.77605469 -11.43945312 3.17773438 C-10.41142578 2.63310547 -9.38339844 2.08847656 -8.32421875 1.52734375 C-7.37635498 1.01937256 -6.42849121 0.51140137 -5.4519043 -0.01196289 C-3 -1 -3 -1 0 0 Z " fill="#C5B6A9" transform="translate(441,223)"/>
<path d="M0 0 C0.33 0 0.66 0 1 0 C1.66 9.57 2.32 19.14 3 29 C0.26384911 26.26384911 0.01783269 23.29411979 -0.6875 19.625 C-0.82994141 18.95210938 -0.97238281 18.27921875 -1.11914062 17.5859375 C-1.81598133 14.06359842 -2.17578582 11.40829055 -1 8 C-0.79104637 6.58633842 -0.60309594 5.16939377 -0.4375 3.75 C-0.293125 2.5125 -0.14875 1.275 0 0 Z " fill="#7B6456" transform="translate(355,394)"/>
<path d="M0 0 C1.06140282 3.18420845 0.95892549 4.08459109 0.22265625 7.23046875 C-0.05288086 8.43413086 -0.05288086 8.43413086 -0.33398438 9.66210938 C-0.53314453 10.49548828 -0.73230469 11.32886719 -0.9375 12.1875 C-1.13279297 13.03248047 -1.32808594 13.87746094 -1.52929688 14.74804688 C-2.01241264 16.833693 -2.50527904 18.91707614 -3 21 C-3.33 21 -3.66 21 -4 21 C-6.02615717 13.05122957 -3.22345174 7.31690083 0 0 Z " fill="#C0B1A4" transform="translate(337,324)"/>
<path d="M0 0 C3.12270026 1.41115314 5.49653681 3.110624 8.0625 5.375 C8.73410156 5.96023438 9.40570312 6.54546875 10.09765625 7.1484375 C11.97541411 8.9760704 13.48949607 10.86364865 15 13 C12 13 12 13 9.08203125 10.41015625 C7.98442437 9.30190591 6.89485507 8.18565055 5.8125 7.0625 C5.25369141 6.49853516 4.69488281 5.93457031 4.11914062 5.35351562 C0 1.15390339 0 1.15390339 0 0 Z " fill="#CDC0B3" transform="translate(607,261)"/>
<path d="M0 0 C0.33 0 0.66 0 1 0 C2.33500455 5.34001821 1.512545 8.83955235 0 14 C-0.99 13.34 -1.98 12.68 -3 12 C-2.14285714 3.42857143 -2.14285714 3.42857143 0 0 Z " fill="#DED3C5" transform="translate(332,340)"/>
<path d="M0 0 C-0.66 0 -1.32 0 -2 0 C-2.33 0.99 -2.66 1.98 -3 3 C-7.07467725 4.48882438 -10.66541415 5.26270217 -15 5 C-12 3 -12 3 -10 3 C-10 2.34 -10 1.68 -10 1 C-3.375 -1.125 -3.375 -1.125 0 0 Z " fill="#6D5546" transform="translate(467,214)"/>
<path d="M0 0 C0.33 0 0.66 0 1 0 C1.20674944 5.78898419 0.59162079 10.42932723 -1 16 C-1.99 16 -2.98 16 -4 16 C-2.68 10.72 -1.36 5.44 0 0 Z " fill="#D9CEC0" transform="translate(698,434)"/>
<path d="M0 0 C3.9252025 3.70090521 6.94580156 7.54959656 10 12 C9.01 12 8.02 12 7 12 C5.17578125 10.13671875 5.17578125 10.13671875 3.3125 7.6875 C2.68988281 6.88699219 2.06726563 6.08648437 1.42578125 5.26171875 C0 3 0 3 0 0 Z " fill="#684F41" transform="translate(383,484)"/>
<path d="M0 0 C5.31027254 1.46032495 9.46330032 3.98320986 14 7 C13.01 7.495 13.01 7.495 12 8 C9.75689987 7.10333658 7.55245679 6.10853317 5.375 5.0625 C4.18648437 4.49660156 2.99796875 3.93070313 1.7734375 3.34765625 C0.85820313 2.90292969 -0.05703125 2.45820313 -1 2 C-0.67 1.34 -0.34 0.68 0 0 Z " fill="#DED2C5" transform="translate(582,228)"/>
<path d="M0 0 C1.1171875 1.640625 1.1171875 1.640625 2 4 C1.3203125 6.796875 1.3203125 6.796875 0.125 9.75 C-0.26429688 10.73484375 -0.65359375 11.7196875 -1.0546875 12.734375 C-1.36664063 13.48203125 -1.67859375 14.2296875 -2 15 C-3.04370776 11.78067606 -2.92371112 9.64643321 -2.125 6.375 C-1.94195312 5.59898437 -1.75890625 4.82296875 -1.5703125 4.0234375 C-1 2 -1 2 0 0 Z " fill="#776052" transform="translate(339,319)"/>
<path d="M0 0 C2.51926901 4.87058675 3.10395221 8.49053291 3 14 C1.13591522 11.20387283 0.51163882 9.62830652 -0.1875 6.4375 C-0.36667969 5.65246094 -0.54585937 4.86742187 -0.73046875 4.05859375 C-1 2 -1 2 0 0 Z " fill="#D8CCBF" transform="translate(656,313)"/>
<path d="M0 0 C6.93 0.495 6.93 0.495 14 1 C14 1.99 14 2.98 14 4 C9.38 3.01 4.76 2.02 0 1 C0 0.67 0 0.34 0 0 Z " fill="#70584A" transform="translate(542,220)"/>
<path d="M0 0 C0.66 0.33 1.32 0.66 2 1 C1.34 3.31 0.68 5.62 0 8 C-0.99 7.67 -1.98 7.34 -3 7 C-2.625 4.0625 -2.625 4.0625 -2 1 C-1.34 0.67 -0.68 0.34 0 0 Z " fill="#E4D9CC" transform="translate(692,459)"/>
<path d="M0 0 C3.99996286 1.33332095 4.83782337 3.4957827 7 7 C6.67 7.66 6.34 8.32 6 9 C4.99406757 7.8803014 3.9954151 6.7540588 3 5.625 C2.443125 4.99851562 1.88625 4.37203125 1.3125 3.7265625 C0 2 0 2 0 0 Z " fill="#725B4C" transform="translate(629,279)"/>
<path d="M0 0 C1.65 0 3.3 0 5 0 C5.33 0.99 5.66 1.98 6 3 C4.02 3.33 2.04 3.66 0 4 C0 2.68 0 1.36 0 0 Z " fill="#6A5243" transform="translate(547,548)"/>
<path d="M0 0 C4.8 2.46153846 4.8 2.46153846 5.8125 5.1875 C5.874375 5.785625 5.93625 6.38375 6 7 C3 5.1875 3 5.1875 0 3 C0 2.01 0 1.02 0 0 Z " fill="#5D4334" transform="translate(611,261)"/>
</svg>
