<svg width="195" height="58" viewBox="0 0 195 58" fill="none" xmlns="http://www.w3.org/2000/svg">
<path d="M44 57C44.1227 57.1157 44.2171 57.2359 44.3125 57.375C44.2816 57.375 44.2506 57.375 44.2188 57.375C44.1617 57.3168 44.1617 57.3168 44.1035 57.2402C44.0841 57.2152 44.0646 57.1902 44.0446 57.1644C44 57.0938 44 57.0938 44 57Z" fill="#684F41"/>
<path d="M10.6185 56.1085C10.8567 56.2508 11.0126 56.4333 11.1056 56.6954C11.1471 56.8654 11.176 57.0588 11.0933 57.2197C11.0391 57.2867 10.9848 57.3355 10.9076 57.3741C10.847 57.3769 10.7862 57.3778 10.7255 57.3776C10.6874 57.3776 10.6492 57.3776 10.6099 57.3776C10.5681 57.3775 10.5263 57.3773 10.4845 57.3771C10.4419 57.3771 10.3992 57.377 10.3566 57.377C10.2443 57.3769 10.132 57.3766 10.0197 57.3762C9.90507 57.3759 9.7905 57.3758 9.67592 57.3756C9.45107 57.3753 9.22621 57.3748 9.00136 57.3741C9.00098 57.3291 9.00071 57.2841 9.00049 57.2391C9.00033 57.214 9.00017 57.1889 9 57.1631C9.0058 56.863 9.15401 56.5222 9.34853 56.2982C9.68307 55.9832 10.1989 55.914 10.6185 56.1085Z" fill="#553A2B"/>
<path d="M19.086 6C19.121 6.05127 19.121 6.05127 19.1485 6.125C19.1273 6.2124 19.1273 6.2124 19.09 6.30469C19.0778 6.33546 19.0656 6.36624 19.0531 6.39795C19.0433 6.42131 19.0336 6.44468 19.0235 6.46875C18.9909 6.36815 18.9947 6.30145 19.0196 6.19922C19.0254 6.17497 19.0311 6.15072 19.037 6.12573C19.0548 6.0625 19.0548 6.0625 19.086 6Z" fill="#776052"/>
<rect width="154" height="40" rx="5" fill="#FAF2E5"/>
<g clip-path="url(#clip0_2901_66)">
<path d="M3 4C13.56 4 24.12 4 35 4C35 14.56 35 25.12 35 36C24.44 36 13.88 36 3 36C3 25.44 3 14.88 3 4Z" fill="#54392A"/>
<path d="M18.5307 10.5596C19.4198 10.5287 20.4095 10.6365 21.1863 11.0934C21.2287 11.1174 21.2712 11.1412 21.3137 11.165C21.4177 11.2234 21.5209 11.283 21.6238 11.3434C21.6032 11.3537 21.5825 11.3641 21.5613 11.3747C21.5038 11.3544 21.5038 11.3544 21.4339 11.3206C21.4081 11.3084 21.3823 11.2963 21.3558 11.2837C21.3282 11.2706 21.3006 11.2574 21.2722 11.2438C20.875 11.0601 20.4966 10.9562 20.0613 10.9059C20.0779 10.9101 20.0945 10.9143 20.1116 10.9187C21.0421 11.1587 21.8025 11.5862 22.4988 12.2497C22.532 12.2804 22.532 12.2804 22.5658 12.3117C23.0203 12.7449 23.5451 13.4242 23.5982 14.0678C23.5984 14.118 23.5958 14.1683 23.5925 14.2184C23.5083 14.092 23.465 13.9537 23.4144 13.8116C23.3696 13.6885 23.3212 13.5787 23.2488 13.4684C23.2597 13.5071 23.2707 13.5458 23.282 13.5856C23.3099 13.6842 23.3116 13.7455 23.28 13.8434C23.2637 13.8124 23.2474 13.7814 23.2306 13.7494C22.9061 13.1453 22.4538 12.665 21.9675 12.1872C22.0908 12.1872 22.1146 12.2255 22.2039 12.3083C22.2314 12.3338 22.259 12.3594 22.2874 12.3857C22.4226 12.5152 22.5549 12.6475 22.6863 12.7809C22.7383 12.8331 22.7904 12.8851 22.8425 12.9372C22.7703 12.8429 22.6972 12.7493 22.6238 12.6559C22.6092 12.637 22.5946 12.618 22.5796 12.5984C22.0537 11.9449 21.1164 11.4952 20.3113 11.3122C20.2908 11.3075 20.2703 11.3028 20.2492 11.298C19.8795 11.2182 19.5101 11.2094 19.1336 11.2087C19.1107 11.2086 19.0879 11.2084 19.0644 11.2083C18.6514 11.2072 18.2509 11.2532 17.8425 11.3122C17.8425 11.3328 17.8425 11.3534 17.8425 11.3747C17.8169 11.3815 17.8169 11.3815 17.7907 11.3884C16.4144 11.7573 15.4175 12.4983 14.6874 13.7351C14.3514 14.3223 14.1609 14.9254 14.0613 15.5934C14.058 15.6153 14.0548 15.6371 14.0514 15.6596C13.987 16.1265 14.0052 16.6439 14.155 17.0934C14.1502 17.0555 14.1453 17.0175 14.1403 16.9784C14.0492 16.1451 14.1436 15.2467 14.4675 14.4684C14.4773 14.4448 14.4871 14.4211 14.4972 14.3967C14.9713 13.2627 15.7511 12.3478 16.8971 11.8578C17.1548 11.7522 17.418 11.6677 17.6863 11.5934C17.721 11.5834 17.721 11.5834 17.7564 11.5732C18.1201 11.472 18.4809 11.457 18.8562 11.4567C18.8902 11.4566 18.8902 11.4566 18.9248 11.4565C19.3145 11.4566 19.6894 11.4956 20.0652 11.6032C20.1008 11.6132 20.1008 11.6132 20.137 11.6234C20.3287 11.6791 20.5088 11.7516 20.6863 11.8434C20.5738 11.8809 20.5543 11.8662 20.448 11.8219C20.2924 11.7622 20.1374 11.719 19.9754 11.6813C19.9532 11.6761 19.9311 11.6709 19.9083 11.6656C19.6122 11.5981 19.3227 11.5859 19.0203 11.5856C18.9979 11.5856 18.9754 11.5856 18.9523 11.5856C18.6054 11.5861 18.2743 11.605 17.9363 11.6872C17.9119 11.6929 17.8875 11.6986 17.8623 11.7044C16.7084 11.9768 15.8135 12.5399 15.155 13.5309C15.1426 13.5495 15.1301 13.568 15.1172 13.5871C14.4032 14.656 14.1533 15.9464 14.3991 17.2042C14.5573 17.9531 14.9011 18.6789 15.3738 19.2809C15.3963 19.3098 15.4188 19.3387 15.442 19.3685C16.1926 20.309 17.4289 20.9962 18.6267 21.1412C18.7808 21.1579 18.933 21.1599 19.0878 21.159C19.1298 21.1589 19.1298 21.1589 19.1728 21.1589C19.2613 21.1587 19.3497 21.1583 19.4382 21.1579C19.4987 21.1577 19.5591 21.1576 19.6196 21.1575C19.7668 21.1571 19.9141 21.1566 20.0613 21.1559C20.0613 21.1662 20.0613 21.1766 20.0613 21.1872C18.8324 21.4083 17.7765 21.1994 16.655 20.6559C16.6269 20.6424 16.5988 20.6288 16.5698 20.6148C16.5146 20.5875 16.4597 20.5594 16.405 20.5309C16.6563 20.6821 16.9121 20.8184 17.1765 20.945C17.2165 20.9643 17.2165 20.9643 17.2574 20.984C18.2897 21.472 19.4042 21.4928 20.4766 21.122C21.2583 20.8385 21.9542 20.4467 22.5613 19.8747C22.5824 19.8556 22.6035 19.8365 22.6253 19.8168C22.8688 19.5879 23.0755 19.3021 23.2175 18.9997C23.1763 19.0203 23.135 19.0409 23.0925 19.0622C23.1283 19.0138 23.1283 19.0138 23.1648 18.9645C23.182 18.9413 23.1991 18.918 23.2168 18.8941C23.2618 18.8358 23.3087 18.7791 23.3569 18.7234C23.8801 18.1133 24.1811 17.3157 24.1302 16.5114C24.1061 16.2321 24.0611 15.9582 23.926 15.709C23.905 15.6559 23.905 15.6559 23.9363 15.5622C24.1194 15.8056 24.2442 16.0767 24.3113 16.3747C24.326 15.8444 24.2337 15.3892 24.0787 14.8843C24.0431 14.767 24.014 14.653 23.9988 14.5309C24.0297 14.5309 24.0607 14.5309 24.0925 14.5309C24.6276 15.5061 24.8755 16.7211 24.5799 17.8219C24.5281 17.9881 24.4694 18.1504 24.405 18.3122C24.388 18.3565 24.388 18.3565 24.3706 18.4016C23.9135 19.5781 23.2511 20.4554 22.155 21.0934C22.1369 21.1042 22.1187 21.115 22.1 21.1261C21.2403 21.6317 20.2031 21.9319 19.2175 22.0622C19.8303 22.052 20.4552 21.9307 21.03 21.7184C21.0534 21.7099 21.0768 21.7015 21.1009 21.6927C21.8648 21.4122 22.5614 21.0291 23.155 20.4684C23.1953 20.4344 23.2357 20.4006 23.2761 20.3669C24.1076 19.636 24.539 18.6126 24.8113 17.5622C24.8216 17.5622 24.8319 17.5622 24.8425 17.5622C24.8492 17.7515 24.8284 17.916 24.782 18.0993C24.7752 18.1261 24.7685 18.153 24.7615 18.1807C24.6762 18.499 24.5443 18.7956 24.405 19.0934C24.3953 19.1146 24.3855 19.1358 24.3755 19.1577C23.7628 20.4799 22.6353 21.4322 21.28 21.9372C21.1251 21.9938 20.9691 22.0452 20.8113 22.0934C20.7831 22.1023 20.7548 22.1112 20.7257 22.1204C20.5482 22.173 20.3686 22.207 20.1863 22.238C20.1637 22.2418 20.1411 22.2457 20.1178 22.2496C18.5655 22.5007 16.9486 22.1239 15.6731 21.2076C15.3964 21.0043 15.1393 20.7799 14.8899 20.5443C14.8586 20.5148 14.8272 20.4855 14.7955 20.4564C14.0955 19.8102 13.6877 18.9273 13.405 18.0309C13.3968 18.0051 13.3886 17.9793 13.3802 17.9527C13 16.724 13.0257 15.3862 13.4988 14.1872C13.5297 14.1562 13.5297 14.1562 13.5613 14.1247C13.551 14.1969 13.5407 14.2691 13.53 14.3434C13.5361 14.3273 13.5422 14.3111 13.5485 14.2945C13.8286 13.5591 14.1795 12.8935 14.7349 12.327C14.7829 12.278 14.8302 12.2283 14.8776 12.1786C15.3164 11.7233 15.8233 11.3866 16.3797 11.0895C16.4229 11.0662 16.4229 11.0662 16.4669 11.0424C16.494 11.0282 16.5211 11.014 16.549 10.9994C16.5732 10.9867 16.5974 10.9739 16.6224 10.9607C16.6863 10.9372 16.6863 10.9372 16.78 10.9684C16.7079 11.0097 16.6357 11.0509 16.5613 11.0934C16.5918 11.0788 16.5918 11.0788 16.623 11.0638C16.8409 10.9615 17.0602 10.8802 17.2898 10.8083C17.3241 10.7975 17.3583 10.7866 17.3936 10.7755C17.7699 10.6586 18.136 10.5757 18.5307 10.5596Z" fill="#F6EEE1"/>
<path d="M23.0938 25.889C23.1447 25.8879 23.1447 25.8879 23.1966 25.8867C23.5628 25.8874 23.8698 26.0275 24.1563 26.2503C24.1755 26.2652 24.1947 26.2801 24.2145 26.2955C24.4756 26.5258 24.6329 26.9088 24.6651 27.2495C24.6775 27.5042 24.6775 27.5042 24.5924 27.6141C24.4784 27.7051 24.3954 27.709 24.2557 27.7055C24.2195 27.7056 24.2195 27.7056 24.1827 27.7056C24.1033 27.7055 24.0241 27.7043 23.9448 27.7031C23.8896 27.7028 23.8345 27.7026 23.7794 27.7024C23.6345 27.7018 23.4897 27.7003 23.3449 27.6985C23.197 27.6969 23.0491 27.6962 22.9012 27.6954C22.6113 27.6938 22.3213 27.6911 22.0313 27.6878C22.0356 27.7574 22.0401 27.8269 22.0446 27.8964C22.0471 27.9351 22.0496 27.9739 22.0521 28.0138C22.0848 28.3625 22.2414 28.7133 22.5001 28.9534C22.838 29.2069 23.1879 29.2162 23.5938 29.1878C24.032 29.1132 24.358 28.8076 24.6251 28.4691C24.7022 28.3586 24.7699 28.2447 24.8363 28.1275C24.8817 28.0518 24.9312 27.9797 24.9809 27.9068C25.2832 27.4454 25.3527 27.0482 25.2813 26.5003C25.2658 26.4539 25.2658 26.4539 25.2501 26.4066C25.1698 26.3664 25.1011 26.365 25.0118 26.3577C24.9804 26.3551 24.9491 26.3525 24.9168 26.3498C24.8807 26.347 24.8807 26.347 24.8438 26.3441C24.8438 26.3028 24.8438 26.2616 24.8438 26.2191C25.0338 26.1472 25.2246 26.0778 25.4161 26.0101C25.4579 25.9951 25.4579 25.9951 25.5006 25.9797C25.5274 25.9703 25.5541 25.9608 25.5817 25.9511C25.6058 25.9425 25.6299 25.934 25.6548 25.9251C25.7188 25.9066 25.7188 25.9066 25.8126 25.9066C25.8229 26.0922 25.8332 26.2778 25.8438 26.4691C25.8825 26.4272 25.9212 26.3853 25.961 26.3421C26.2437 26.0599 26.5646 25.9022 26.9641 25.8947C27.3634 25.8955 27.7301 25.9597 28.0294 26.2457C28.2143 26.4453 28.2956 26.6274 28.2938 26.9003C28.294 26.9236 28.2943 26.9469 28.2945 26.9709C28.2951 27.0472 28.2951 27.1236 28.2951 27.1999C28.2955 27.2532 28.2959 27.3066 28.2964 27.3599C28.2975 27.4998 28.2981 27.6398 28.2986 27.7797C28.2994 28.004 28.3006 28.2283 28.3024 28.4527C28.3029 28.5309 28.303 28.6091 28.3031 28.6874C28.3034 28.7353 28.3037 28.7833 28.3041 28.8312C28.304 28.8529 28.3039 28.8746 28.3038 28.897C28.305 29.0082 28.3081 29.0963 28.3751 29.1878C28.4716 29.2235 28.4716 29.2235 28.5821 29.2425C28.6378 29.2539 28.6378 29.2539 28.6946 29.2654C28.7232 29.2708 28.7518 29.2761 28.7813 29.2816C28.7916 29.3228 28.8019 29.3641 28.8126 29.4066C28.6804 29.4102 28.5483 29.4124 28.4161 29.4144C28.3786 29.4154 28.3412 29.4165 28.3026 29.4175C28.2665 29.4179 28.2303 29.4183 28.1931 29.4188C28.1598 29.4194 28.1266 29.4201 28.0924 29.4207C27.9722 29.4023 27.9266 29.3706 27.8438 29.2816C27.762 29.1196 27.7385 28.9708 27.739 28.7891C27.739 28.7663 27.7389 28.7435 27.7388 28.72C27.7387 28.671 27.7388 28.622 27.7391 28.5729C27.7396 28.4951 27.7394 28.4173 27.739 28.3395C27.738 28.1185 27.7382 27.8974 27.7388 27.6764C27.7391 27.5407 27.7387 27.4051 27.7379 27.2695C27.7377 27.218 27.7378 27.1666 27.7383 27.1152C27.7482 26.7619 27.7482 26.7619 27.6039 26.448C27.5424 26.3864 27.4822 26.3491 27.4024 26.3148C27.3626 26.2969 27.3626 26.2969 27.3221 26.2787C27.082 26.1839 26.7999 26.1782 26.5547 26.264C26.3719 26.3491 26.2342 26.4831 26.0938 26.6253C26.0723 26.6465 26.0507 26.6678 26.0285 26.6896C25.7435 26.9882 25.5655 27.3671 25.379 27.7308C25.1539 28.168 24.9148 28.5895 24.5626 28.9378C24.5443 28.9571 24.526 28.9765 24.5071 28.9964C24.1182 29.3769 23.6511 29.449 23.1314 29.4497C22.6451 29.4437 22.2781 29.3164 21.9063 29.0003C21.7561 28.8448 21.6437 28.669 21.5626 28.4691C21.5509 28.4421 21.5393 28.4151 21.5273 28.3873C21.3611 27.9415 21.3629 27.3125 21.5522 26.8755C21.7393 26.4695 21.9681 26.1747 22.3932 25.9981C22.6299 25.9107 22.8426 25.8864 23.0938 25.889Z" fill="#F5EDE0"/>
<path d="M9.1875 24.6562C9.71344 24.6562 10.2394 24.6562 10.7812 24.6562C10.7812 24.6975 10.7812 24.7387 10.7812 24.7812C10.6931 24.8253 10.6067 24.8211 10.509 24.8258C10.4111 24.8504 10.3757 24.8906 10.3125 24.9688C10.2933 25.0567 10.2933 25.0567 10.2954 25.1551C10.2948 25.1931 10.2942 25.2312 10.2936 25.2704C10.2935 25.3102 10.2935 25.3501 10.2935 25.3911C10.293 25.4278 10.2925 25.4646 10.292 25.5024C10.2903 25.6396 10.2898 25.7768 10.2891 25.9141C10.2852 26.3743 10.2852 26.3743 10.2812 26.8438C11.2094 26.8438 12.1375 26.8438 13.0938 26.8438C13.0899 26.3836 13.0899 26.3836 13.0859 25.9141C13.0854 25.8173 13.085 25.7206 13.0844 25.6209C13.0835 25.5443 13.0826 25.4677 13.0815 25.3911C13.0815 25.3313 13.0815 25.3313 13.0814 25.2704C13.0805 25.2133 13.0805 25.2133 13.0796 25.1551C13.0793 25.122 13.079 25.089 13.0787 25.055C13.0585 24.9477 13.0222 24.9106 12.9375 24.8438C12.8664 24.8234 12.8664 24.8234 12.793 24.8223C12.6604 24.8146 12.6604 24.8146 12.5938 24.7812C12.5938 24.74 12.5938 24.6988 12.5938 24.6562C13.1197 24.6562 13.6456 24.6562 14.1875 24.6562C14.1772 24.6975 14.1669 24.7387 14.1562 24.7812C14.0673 24.8257 13.9794 24.8227 13.881 24.8289C13.7988 24.8467 13.7709 24.8728 13.7188 24.9375C13.6792 25.0166 13.6835 25.0712 13.6833 25.1597C13.6832 25.1935 13.6831 25.2274 13.6829 25.2622C13.6829 25.2995 13.6829 25.3368 13.683 25.3752C13.6829 25.4143 13.6828 25.4534 13.6826 25.4937C13.6824 25.6012 13.6823 25.7087 13.6823 25.8162C13.6822 25.9059 13.6821 25.9956 13.682 26.0853C13.6818 26.297 13.6817 26.5086 13.6817 26.7202C13.6817 26.9386 13.6814 27.1569 13.6809 27.3753C13.6805 27.5627 13.6803 27.7501 13.6803 27.9375C13.6804 28.0495 13.6803 28.1614 13.6799 28.2734C13.6796 28.3982 13.6797 28.5231 13.6799 28.648C13.6797 28.6851 13.6796 28.7223 13.6794 28.7606C13.6795 28.7946 13.6796 28.8286 13.6798 28.8636C13.6798 28.8931 13.6797 28.9227 13.6797 28.9531C13.688 29.0359 13.7058 29.0862 13.75 29.1562C13.8386 29.2149 13.9187 29.229 14.0234 29.2383C14.0484 29.2406 14.0734 29.243 14.0991 29.2454C14.1274 29.2477 14.1274 29.2477 14.1562 29.25C14.1666 29.2913 14.1769 29.3325 14.1875 29.375C13.6616 29.375 13.1356 29.375 12.5938 29.375C12.5938 29.3337 12.5938 29.2925 12.5938 29.25C12.6215 29.2482 12.6215 29.2482 12.6498 29.2465C12.799 29.234 12.9095 29.2201 13.0312 29.125C13.075 29.0375 13.0676 28.964 13.0689 28.8661C13.0692 28.8456 13.0695 28.8252 13.0699 28.8041C13.0708 28.7378 13.0716 28.6715 13.0724 28.6052C13.073 28.5647 13.0736 28.5243 13.0742 28.4826C13.0763 28.3308 13.0782 28.1791 13.0801 28.0273C13.0846 27.6883 13.0891 27.3493 13.0938 27C12.1553 27 11.2169 27 10.25 27C10.2539 27.3216 10.2577 27.6432 10.2617 27.9746C10.2628 28.076 10.2638 28.1773 10.2649 28.2818C10.266 28.3621 10.2672 28.4425 10.2683 28.5228C10.2685 28.5436 10.2687 28.5644 10.2688 28.5858C10.2694 28.6473 10.2703 28.7088 10.2713 28.7703C10.2717 28.8049 10.2721 28.8395 10.2725 28.8752C10.2846 29.0048 10.3077 29.0944 10.4082 29.1797C10.531 29.2319 10.649 29.2416 10.7812 29.25C10.7812 29.2913 10.7812 29.3325 10.7812 29.375C10.2553 29.375 9.72938 29.375 9.1875 29.375C9.20297 29.3131 9.20297 29.3131 9.21875 29.25C9.24248 29.2466 9.2662 29.2432 9.29065 29.2396C9.32171 29.2347 9.35277 29.2297 9.38477 29.2246C9.41558 29.2199 9.4464 29.2152 9.47815 29.2103C9.5676 29.1861 9.60019 29.1658 9.65625 29.0938C9.69569 29.0149 9.69179 28.9601 9.69231 28.8717C9.69258 28.838 9.69285 28.8042 9.69312 28.7694C9.69326 28.7322 9.69339 28.6949 9.69353 28.6566C9.69378 28.6175 9.69404 28.5784 9.6943 28.5382C9.69508 28.4084 9.6956 28.2786 9.69604 28.1488C9.69621 28.1041 9.69638 28.0595 9.69655 28.0148C9.69722 27.829 9.69781 27.6432 9.69816 27.4574C9.69867 27.1911 9.69971 26.9247 9.70149 26.6584C9.7027 26.4712 9.70331 26.2839 9.70347 26.0967C9.70359 25.9849 9.70396 25.873 9.70498 25.7612C9.70609 25.6364 9.70597 25.5116 9.70573 25.3868C9.70625 25.3498 9.70676 25.3127 9.70729 25.2746C9.70772 25.0729 9.70772 25.0729 9.61346 24.8995C9.52712 24.8409 9.46788 24.8178 9.36523 24.8027C9.33764 24.7983 9.31005 24.794 9.28162 24.7894C9.26087 24.7867 9.24012 24.784 9.21875 24.7812C9.20844 24.74 9.19813 24.6988 9.1875 24.6562Z" fill="#F8EFE2"/>
<path d="M17.0674 26.2328C17.2938 26.4076 17.5039 26.7374 17.5563 27.0226C17.5935 27.5147 17.5935 27.5147 17.4991 27.6561C17.3869 27.6936 17.2849 27.6915 17.1681 27.6909C17.132 27.691 17.132 27.691 17.0951 27.691C17.0155 27.6909 16.9358 27.6907 16.8562 27.6904C16.801 27.6904 16.7457 27.6903 16.6905 27.6903C16.5452 27.6902 16.3999 27.6899 16.2545 27.6895C16.1062 27.6892 15.9579 27.6891 15.8096 27.6889C15.5186 27.6886 15.2276 27.6881 14.9366 27.6874C14.9409 27.7573 14.9453 27.8273 14.9499 27.8972C14.9524 27.9361 14.9548 27.9751 14.9574 28.0152C14.9702 28.1493 15.0005 28.2629 15.0519 28.3866C15.0602 28.4076 15.0686 28.4287 15.0773 28.4503C15.2062 28.7609 15.4065 29.0001 15.7204 29.135C16.1035 29.2645 16.4598 29.2496 16.8324 29.089C17.0548 28.9699 17.1949 28.7946 17.3429 28.5936C17.4047 28.6091 17.4047 28.6091 17.4679 28.6249C17.4883 28.68 17.4883 28.68 17.4991 28.7499C17.3266 29.1001 16.9761 29.2845 16.6241 29.4061C16.1344 29.5202 15.5666 29.4754 15.1256 29.2298C14.8866 29.0713 14.6876 28.8849 14.5616 28.6249C14.5418 28.5862 14.5418 28.5862 14.5216 28.5468C14.3054 28.1043 14.2598 27.5345 14.4022 27.0592C14.5747 26.6054 14.806 26.258 15.2491 26.0311C15.8677 25.789 16.5208 25.8691 17.0674 26.2328Z" fill="#F6EDE0"/>
<path d="M20.75 24.0625C20.7501 24.0885 20.7501 24.1145 20.7502 24.1413C20.7521 24.7735 20.7544 25.4057 20.7574 26.0378C20.7588 26.3436 20.76 26.6493 20.7608 26.955C20.7615 27.2214 20.7626 27.4878 20.764 27.7542C20.7648 27.8953 20.7654 28.0364 20.7656 28.1775C20.7657 28.3103 20.7664 28.443 20.7673 28.5757C20.7676 28.6245 20.7677 28.6733 20.7677 28.7221C20.7676 28.7886 20.7681 28.8551 20.7688 28.9215C20.7689 28.9588 20.7691 28.996 20.7692 29.0344C20.7739 29.1246 20.7739 29.1246 20.8236 29.1832C20.8969 29.2339 20.9651 29.2425 21.0527 29.2559C21.0838 29.2608 21.1149 29.2658 21.1469 29.2709C21.1706 29.2743 21.1943 29.2777 21.2188 29.2812C21.2291 29.3225 21.2394 29.3637 21.25 29.4062C20.7344 29.4062 20.2188 29.4062 19.6875 29.4062C19.703 29.3444 19.703 29.3444 19.7188 29.2812C19.7617 29.2727 19.7617 29.2727 19.8054 29.264C19.8611 29.2523 19.8611 29.2523 19.918 29.2402C19.9549 29.2326 19.9919 29.225 20.03 29.2172C20.1337 29.1957 20.1337 29.1957 20.1875 29.0938C20.197 29.0098 20.197 29.0098 20.1956 28.9135C20.196 28.8571 20.196 28.8571 20.1963 28.7995C20.1962 28.7578 20.1962 28.7161 20.1961 28.6744C20.1962 28.6305 20.1964 28.5866 20.1966 28.5427C20.197 28.4235 20.197 28.3042 20.1969 28.185C20.1969 28.0855 20.197 27.986 20.1972 27.8865C20.1975 27.6519 20.1976 27.4172 20.1974 27.1826C20.1972 26.9403 20.1976 26.6981 20.1982 26.4558C20.1988 26.248 20.199 26.0401 20.1989 25.8322C20.1988 25.708 20.1989 25.5838 20.1993 25.4596C20.1997 25.3429 20.1997 25.2261 20.1992 25.1094C20.1992 25.0665 20.1993 25.0236 20.1995 24.9807C20.1998 24.9222 20.1995 24.8638 20.1992 24.8053C20.1992 24.7725 20.1992 24.7398 20.1992 24.7061C20.1939 24.6242 20.1939 24.6242 20.1452 24.5679C20.0707 24.5148 20.0064 24.5151 19.916 24.5098C19.885 24.5077 19.8539 24.5057 19.8219 24.5035C19.7863 24.5018 19.7863 24.5018 19.75 24.5C19.7593 24.4404 19.7593 24.4404 19.7812 24.375C19.8656 24.3361 19.9428 24.308 20.0312 24.2812C20.0804 24.2663 20.0804 24.2663 20.1305 24.251C20.2009 24.2296 20.2712 24.2082 20.3417 24.187C20.4193 24.1621 20.4922 24.135 20.5664 24.1016C20.6562 24.0625 20.6562 24.0625 20.75 24.0625Z" fill="#F4EBDE"/>
<path d="M16.7092 26.3109C16.9259 26.4915 17.0461 26.6456 17.074 26.9288C17.0877 27.2429 17.0877 27.2429 17.0029 27.3714C16.9271 27.4478 16.901 27.4674 16.7939 27.4723C16.7596 27.4723 16.7254 27.4722 16.69 27.4721C16.6513 27.4721 16.6125 27.4721 16.5725 27.4721C16.53 27.472 16.4876 27.4718 16.4451 27.4716C16.4017 27.4716 16.3584 27.4715 16.315 27.4715C16.2009 27.4714 16.0867 27.4711 15.9726 27.4707C15.8561 27.4704 15.7396 27.4703 15.6232 27.4701C15.3946 27.4698 15.1661 27.4692 14.9375 27.4686C14.9463 27.3894 14.9554 27.3102 14.9647 27.231C14.9672 27.2089 14.9696 27.1867 14.9721 27.1638C15.0153 26.8018 15.1633 26.5236 15.4375 26.2811C15.8074 26.0276 16.3529 26.0526 16.7092 26.3109Z" fill="#553A2B"/>
<path d="M18.8438 25.9062C18.844 25.9451 18.8443 25.9839 18.8445 26.0238C18.8469 26.3894 18.8497 26.7549 18.8527 27.1205C18.8543 27.3084 18.8557 27.4964 18.8569 27.6843C18.8581 27.8657 18.8595 28.047 18.8612 28.2284C18.8618 28.2976 18.8622 28.3668 18.8626 28.436C18.8631 28.5329 18.864 28.6298 18.865 28.7266C18.8651 28.7553 18.8652 28.784 18.8652 28.8135C18.8666 29.0084 18.8666 29.0084 18.9375 29.1875C19.0336 29.2269 19.0336 29.2269 19.1445 29.2441C19.1817 29.2514 19.2188 29.2587 19.2571 29.2662C19.2857 29.2712 19.3143 29.2761 19.3438 29.2812C19.3541 29.3225 19.3644 29.3637 19.375 29.4062C18.8594 29.4062 18.3438 29.4062 17.8125 29.4062C17.8228 29.365 17.8331 29.3238 17.8438 29.2812C17.8626 29.2797 17.8815 29.2782 17.9009 29.2766C17.9383 29.2731 17.9383 29.2731 17.9766 29.2695C18.0135 29.2663 18.0135 29.2663 18.0513 29.2629C18.1316 29.2488 18.1829 29.2342 18.25 29.1875C18.3195 29.0554 18.3216 28.929 18.3211 28.7831C18.3212 28.7586 18.3214 28.7341 18.3216 28.7089C18.322 28.6281 18.322 28.5474 18.3219 28.4667C18.322 28.4104 18.3222 28.3542 18.3223 28.298C18.3225 28.1803 18.3225 28.0626 18.3224 27.9449C18.3222 27.794 18.3227 27.6431 18.3234 27.4923C18.3239 27.3762 18.3239 27.2602 18.3238 27.1441C18.3238 27.0885 18.324 27.0328 18.3243 26.9772C18.3247 26.8995 18.3245 26.8218 18.3241 26.7441C18.3244 26.7211 18.3246 26.6981 18.3249 26.6745C18.3239 26.577 18.3177 26.5095 18.2702 26.4234C18.197 26.3545 18.14 26.3562 18.041 26.3516C18.01 26.3498 17.9789 26.348 17.9469 26.3462C17.9113 26.345 17.9113 26.345 17.875 26.3438C17.875 26.3025 17.875 26.2613 17.875 26.2188C17.8971 26.2115 17.9191 26.2043 17.9419 26.1968C18.042 26.1638 18.1421 26.1308 18.2422 26.0977C18.2769 26.0863 18.3116 26.0749 18.3474 26.0631C18.3808 26.052 18.4143 26.041 18.4487 26.0295C18.4795 26.0194 18.5103 26.0092 18.542 25.9988C18.6239 25.9712 18.6239 25.9712 18.6927 25.9337C18.75 25.9062 18.75 25.9062 18.8438 25.9062Z" fill="#F8F0E3"/>
<path d="M27.0176 26.5354C27.2979 26.6883 27.4477 26.8946 27.5568 27.1957C27.6099 27.3976 27.5995 27.6056 27.5938 27.8127C27.5671 27.8062 27.5671 27.8062 27.5399 27.7995C27.2807 27.7413 27.0262 27.7384 26.7615 27.7353C26.5342 27.7298 26.3666 27.7187 26.1841 27.5724C26.1672 27.5531 26.1502 27.5338 26.1328 27.5139C26.1156 27.4952 26.0983 27.4764 26.0806 27.4571C26.0066 27.3342 25.9743 27.2007 25.9375 27.0627C26.0566 27.0609 26.1758 27.0598 26.2949 27.0588C26.3283 27.0583 26.3618 27.0578 26.3962 27.0572C26.5965 27.056 26.7757 27.0718 26.9688 27.1252C27.0104 27.1357 27.0521 27.1461 27.0938 27.1565C26.7948 26.8799 26.5109 26.8946 26.125 26.9065C26.2046 26.7193 26.3732 26.6284 26.5469 26.5354C26.7194 26.4799 26.8449 26.4809 27.0176 26.5354Z" fill="#F7EEE1"/>
<path d="M25.6875 27.375C25.7539 27.3867 25.7539 27.3867 25.8125 27.4062C25.8127 27.4369 25.8127 27.4369 25.8128 27.4681C25.8142 27.6805 25.8163 27.8929 25.819 28.1053C25.8199 28.1846 25.8205 28.2638 25.821 28.3431C25.8216 28.4571 25.8231 28.571 25.8247 28.6849C25.8247 28.7204 25.8248 28.7558 25.8248 28.7923C25.8275 28.9865 25.8275 28.9865 25.902 29.1624C25.9844 29.2319 26.0421 29.2458 26.1484 29.2598C26.1792 29.2642 26.21 29.2685 26.2417 29.2731C26.2651 29.2758 26.2884 29.2785 26.3125 29.2812C26.328 29.3431 26.328 29.3431 26.3438 29.4062C25.8281 29.4062 25.3125 29.4062 24.7812 29.4062C24.7916 29.365 24.8019 29.3238 24.8125 29.2812C24.9014 29.2368 24.9894 29.2398 25.0878 29.2336C25.1705 29.2156 25.1986 29.1913 25.25 29.125C25.2859 29.0173 25.2827 28.9377 25.2802 28.8242C25.2748 28.2916 25.3 27.8842 25.625 27.4375C25.6456 27.4169 25.6662 27.3963 25.6875 27.375Z" fill="#F8F0E2"/>
<path d="M34.9688 34.2812C34.9791 34.2812 34.9894 34.2812 35 34.2812C35 34.8484 35 35.4156 35 36C34.4019 36 33.8037 36 33.1875 36C33.1875 35.9897 33.1875 35.9794 33.1875 35.9688C33.2147 35.9638 33.242 35.9588 33.27 35.9537C33.8287 35.8443 34.2771 35.6192 34.625 35.1562C34.807 34.8795 34.8975 34.6011 34.9688 34.2812Z" fill="#FCFBFB"/>
<path d="M33.2188 4C33.8066 4 34.3944 4 35 4C35 4.59812 35 5.19625 35 5.8125C34.9897 5.8125 34.9794 5.8125 34.9688 5.8125C34.9661 5.78978 34.9634 5.76706 34.9606 5.74365C34.889 5.2315 34.6511 4.76143 34.238 4.4425C33.9249 4.21602 33.6055 4.07328 33.2188 4.03125C33.2188 4.02094 33.2188 4.01063 33.2188 4Z" fill="#FCFCFB"/>
<path d="M3 34.1562C3.01031 34.1562 3.02062 34.1562 3.03125 34.1562C3.03512 34.1865 3.03898 34.2168 3.04297 34.248C3.12317 34.797 3.36163 35.2539 3.80396 35.5974C4.08367 35.7852 4.38805 35.9081 4.71875 35.9688C4.71875 35.9791 4.71875 35.9894 4.71875 36C4.15156 36 3.58438 36 3 36C3 35.3916 3 34.7831 3 34.1562Z" fill="#FCFCFC"/>
<path d="M3 4C3.5775 4 4.155 4 4.75 4C4.75 4.01031 4.75 4.02062 4.75 4.03125C4.72647 4.03512 4.70295 4.03898 4.67871 4.04297C4.14674 4.14626 3.70418 4.40229 3.37891 4.8418C3.19255 5.12802 3.09656 5.41601 3.03125 5.75C3.02094 5.75 3.01063 5.75 3 5.75C3 5.1725 3 4.595 3 4Z" fill="white"/>
<path d="M18.7192 24.6563C18.8109 24.7124 18.8589 24.7483 18.9067 24.8438C18.9388 25.0824 18.8859 25.2703 18.7504 25.4688C18.6338 25.5465 18.5759 25.5482 18.4379 25.5313C18.307 25.4113 18.2318 25.2532 18.2091 25.0783C18.2032 24.9426 18.2056 24.8659 18.2778 24.7481C18.409 24.6285 18.5484 24.6361 18.7192 24.6563Z" fill="#F6EDE0"/>
<path d="M16.3125 20.4688C16.4222 20.5104 16.5266 20.5593 16.6317 20.6114C17.7389 21.1545 18.7828 21.368 20 21.1875C20.0309 21.2339 20.0309 21.2339 20.0625 21.2812C18.7898 21.5489 17.6205 21.3259 16.5131 20.6374C16.3727 20.5454 16.3727 20.5454 16.3125 20.5C16.3125 20.4897 16.3125 20.4794 16.3125 20.4688Z" fill="#634A3B"/>
<path d="M17.5625 11.1254C17.5338 11.1348 17.5338 11.1348 17.5045 11.1444C17.1009 11.2775 16.7161 11.4198 16.3438 11.6254C16.3155 11.6407 16.2872 11.656 16.2581 11.6718C15.843 11.9079 15.4986 12.2343 15.1562 12.5629C15.1562 12.3983 15.2946 12.2996 15.4062 12.1879C15.5168 12.0885 15.632 11.997 15.75 11.9067C15.766 11.8941 15.782 11.8814 15.7986 11.8684C16.2601 11.5068 16.7853 11.2923 17.3438 11.1254C17.3753 11.1157 17.3753 11.1157 17.4075 11.1057C17.4688 11.0942 17.4688 11.0942 17.5625 11.1254Z" fill="#725A4C"/>
<path d="M14.4688 18.2188C14.5551 18.325 14.6156 18.4413 14.6777 18.5625C15.011 19.1972 15.4668 19.7763 16.0312 20.2188C16.0698 20.2505 16.1082 20.2823 16.1465 20.3145C16.1703 20.3344 16.1942 20.3544 16.2188 20.375C15.9713 20.375 15.704 20.0356 15.5312 19.875C15.5107 19.8566 15.4902 19.8381 15.4691 19.8191C15.0927 19.4652 14.8289 19.0174 14.5938 18.5625C14.5757 18.5284 14.5757 18.5284 14.5573 18.4937C14.5458 18.4716 14.5343 18.4495 14.5225 18.4268C14.507 18.3972 14.507 18.3972 14.4911 18.367C14.4688 18.3125 14.4688 18.3125 14.4688 18.2188Z" fill="#735C4D"/>
<path d="M24.8125 17.5625C24.8228 17.5625 24.8331 17.5625 24.8438 17.5625C24.8527 17.7644 24.8212 17.9361 24.7695 18.1309C24.7591 18.1719 24.7591 18.1719 24.7485 18.2138C24.7149 18.3443 24.6797 18.4702 24.625 18.5938C24.5941 18.5834 24.5631 18.5731 24.5312 18.5625C24.5512 18.418 24.5888 18.2881 24.6367 18.1504C24.7033 17.9563 24.7616 17.7614 24.8125 17.5625Z" fill="#F0E6D9"/>
<path d="M22.0938 12.1562C22.4282 12.3445 22.6596 12.6279 22.875 12.9375C22.8647 12.9581 22.8544 12.9787 22.8438 13C22.8242 12.979 22.8242 12.979 22.8042 12.9576C22.7439 12.8929 22.6834 12.8283 22.623 12.7637C22.5923 12.7306 22.5923 12.7306 22.5609 12.697C22.3497 12.4453 22.3497 12.4453 22.0938 12.25C22.0938 12.2191 22.0938 12.1881 22.0938 12.1562Z" fill="#644A3C"/>
<path d="M16.0625 11.6875C16.0625 11.7184 16.0625 11.7494 16.0625 11.7812C16.0006 11.8351 15.9391 11.8834 15.873 11.9316C15.6174 12.1246 15.3871 12.341 15.1562 12.5625C15.1562 12.4217 15.2363 12.3653 15.329 12.2646C15.5503 12.0437 15.8039 11.862 16.0625 11.6875Z" fill="#664D3E"/>
<path d="M21.9688 12.1562C22.3003 12.3085 22.6211 12.6642 22.8125 12.9688C22.6706 12.9573 22.6012 12.8543 22.5137 12.7539C22.4807 12.717 22.4476 12.6801 22.4144 12.6433C22.3976 12.6246 22.3809 12.606 22.3636 12.5868C22.2569 12.4708 22.1434 12.3616 22.0308 12.2515C21.9688 12.1875 21.9688 12.1875 21.9688 12.1562Z" fill="#E9E0D2"/>
<path d="M15.25 19.5C15.2706 19.5 15.2912 19.5 15.3125 19.5C15.3552 19.5494 15.3959 19.6005 15.4355 19.6523C15.6606 19.9334 15.9308 20.1603 16.2188 20.375C15.9715 20.375 15.7037 20.0358 15.5312 19.875C15.5068 19.8522 15.4823 19.8294 15.457 19.8059C15.4345 19.7842 15.4119 19.7626 15.3887 19.7402C15.3687 19.721 15.3486 19.7018 15.328 19.682C15.2777 19.6207 15.2625 19.5775 15.25 19.5Z" fill="#765F51"/>
<path d="M17.2812 10.7812C17.1984 10.8844 17.1019 10.9104 16.9785 10.9511C16.8481 10.9954 16.7248 11.04 16.6035 11.1054C16.5 11.1562 16.5 11.1562 16.4062 11.1249C16.457 11.0987 16.5078 11.0727 16.5586 11.0468C16.5869 11.0323 16.6152 11.0178 16.6443 11.0029C16.7188 10.9687 16.7188 10.9687 16.7812 10.9687C16.7812 10.9481 16.7812 10.9274 16.7812 10.9062C16.841 10.8791 16.9009 10.8525 16.9609 10.8261C16.9943 10.8112 17.0276 10.7964 17.062 10.7811C17.1557 10.7501 17.1917 10.7449 17.2812 10.7812Z" fill="#877163"/>
<path d="M19.75 11.5625C20.0797 11.5799 20.3963 11.6908 20.6875 11.8438C20.575 11.8813 20.5555 11.8665 20.4492 11.8223C20.2121 11.7307 19.9664 11.6796 19.7188 11.625C19.7291 11.6044 19.7394 11.5838 19.75 11.5625Z" fill="#DFD4C7"/>
<path d="M19.875 21.9685C19.8956 21.9891 19.9162 22.0097 19.9375 22.031C19.645 22.0694 19.3583 22.105 19.0625 22.0935C19.0625 22.0832 19.0625 22.0729 19.0625 22.0622C19.1744 22.0403 19.2864 22.019 19.3984 21.9978C19.4461 21.9884 19.4461 21.9884 19.4946 21.9789C19.5406 21.9703 19.5406 21.9703 19.5874 21.9615C19.6156 21.9561 19.6437 21.9507 19.6727 21.9452C19.7515 21.9371 19.8012 21.9408 19.875 21.9685Z" fill="#786152"/>
<path d="M16.7812 10.9688C16.7305 10.995 16.6797 11.021 16.6289 11.0469C16.6006 11.0614 16.5723 11.0759 16.5432 11.0909C16.4688 11.125 16.4688 11.125 16.4062 11.125C16.4062 11.1457 16.4062 11.1663 16.4062 11.1875C16.1897 11.2958 16.1897 11.2958 15.9688 11.4063C15.9688 11.3754 15.9688 11.3444 15.9688 11.3125C16.0863 11.2489 16.2043 11.1859 16.3223 11.1231C16.3558 11.1049 16.3893 11.0868 16.4238 11.0681C16.4559 11.0511 16.488 11.0341 16.5211 11.0165C16.5507 11.0007 16.5804 10.9848 16.6109 10.9684C16.6875 10.9375 16.6875 10.9375 16.7812 10.9688Z" fill="#C5B6A9"/>
<path d="M15.0551 23C15.0655 23 15.0758 23 15.0864 23C15.107 23.2991 15.1276 23.5981 15.1489 23.9062C15.0634 23.8207 15.0557 23.7279 15.0337 23.6133C15.0292 23.5923 15.0248 23.5712 15.0202 23.5496C14.9984 23.4395 14.9872 23.3565 15.0239 23.25C15.0304 23.2058 15.0363 23.1615 15.0415 23.1172C15.046 23.0785 15.0505 23.0398 15.0551 23Z" fill="#7B6456"/>
<path d="M13.5331 14.125C13.5663 14.2245 13.5631 14.2526 13.5401 14.351C13.5315 14.3886 13.5315 14.3886 13.5227 14.4269C13.5165 14.453 13.5103 14.479 13.5038 14.5059C13.4977 14.5323 13.4916 14.5587 13.4854 14.5859C13.4703 14.6511 13.4549 14.7162 13.4394 14.7812C13.4291 14.7812 13.4188 14.7812 13.4081 14.7812C13.3448 14.5329 13.4324 14.3537 13.5331 14.125Z" fill="#C0B1A4"/>
<path d="M21.9688 12.1562C22.0663 12.2003 22.1405 12.2535 22.2207 12.3242C22.2417 12.3425 22.2627 12.3608 22.2843 12.3796C22.343 12.4368 22.3903 12.4957 22.4375 12.5625C22.3438 12.5625 22.3438 12.5625 22.2526 12.4816C22.2183 12.4469 22.1842 12.4121 22.1504 12.377C22.1329 12.3593 22.1155 12.3417 22.0975 12.3235C21.9688 12.1923 21.9688 12.1923 21.9688 12.1562Z" fill="#CDC0B3"/>
<path d="M13.375 14.625C13.3853 14.625 13.3956 14.625 13.4062 14.625C13.448 14.7919 13.4223 14.9012 13.375 15.0625C13.3441 15.0419 13.3131 15.0213 13.2812 15C13.308 14.7321 13.308 14.7321 13.375 14.625Z" fill="#DED3C5"/>
<path d="M17.5938 10.6874C17.5731 10.6874 17.5525 10.6874 17.5312 10.6874C17.5209 10.7184 17.5106 10.7493 17.5 10.7812C17.3727 10.8277 17.2605 10.8519 17.125 10.8437C17.2188 10.7812 17.2188 10.7812 17.2812 10.7812C17.2812 10.7606 17.2812 10.7399 17.2812 10.7187C17.4883 10.6523 17.4883 10.6523 17.5938 10.6874Z" fill="#6D5546"/>
<path d="M24.8125 17.5625C24.8228 17.5625 24.8331 17.5625 24.8438 17.5625C24.8502 17.7434 24.831 17.8884 24.7812 18.0625C24.7503 18.0625 24.7194 18.0625 24.6875 18.0625C24.7288 17.8975 24.77 17.7325 24.8125 17.5625Z" fill="#D9CEC0"/>
<path d="M21.1875 11.125C21.3534 11.1706 21.4832 11.2495 21.625 11.3438C21.5941 11.3592 21.5941 11.3592 21.5625 11.375C21.4924 11.347 21.4235 11.3159 21.3555 11.2832C21.3183 11.2655 21.2812 11.2478 21.2429 11.2296C21.2143 11.2157 21.1857 11.2018 21.1562 11.1875C21.1666 11.1669 21.1769 11.1463 21.1875 11.125Z" fill="#DED2C5"/>
<path d="M23.5003 13.7812C23.579 13.9335 23.5973 14.0466 23.594 14.2188C23.5358 14.1314 23.5162 14.0821 23.4944 13.9824C23.4888 13.9579 23.4832 13.9334 23.4774 13.9081C23.469 13.8438 23.469 13.8438 23.5003 13.7812Z" fill="#D8CCBF"/>
<path d="M19.9375 10.875C20.1541 10.8905 20.1541 10.8905 20.375 10.9062C20.375 10.9372 20.375 10.9681 20.375 11C20.2306 10.9691 20.0863 10.9381 19.9375 10.9062C19.9375 10.8959 19.9375 10.8856 19.9375 10.875Z" fill="#70584A"/>
<path d="M22.6562 12.7188C22.7812 12.7604 22.8074 12.828 22.875 12.9375C22.8647 12.9581 22.8544 12.9787 22.8438 13C22.8123 12.965 22.7811 12.9298 22.75 12.8945C22.7326 12.875 22.7152 12.8554 22.6973 12.8352C22.6562 12.7812 22.6562 12.7812 22.6562 12.7188Z" fill="#725B4C"/>
<path d="M12 11C12.0516 11 12.1031 11 12.1562 11C12.1666 11.0309 12.1769 11.0619 12.1875 11.0938C12.1256 11.1041 12.0637 11.1144 12 11.125C12 11.0837 12 11.0425 12 11Z" fill="#6A5243"/>
</g>
<path d="M24.0938 33C24.1144 33.0103 24.135 33.0206 24.1562 33.0312C24.1356 33.1034 24.115 33.1756 24.0938 33.25C24.0628 33.2397 24.0319 33.2294 24 33.2188C24.0117 33.127 24.0117 33.127 24.0312 33.0312C24.0519 33.0209 24.0725 33.0106 24.0938 33Z" fill="#E4D9CC"/>
<path d="M32 13C32.15 13.0769 32.15 13.0769 32.1816 13.1621C32.1836 13.1808 32.1855 13.1995 32.1875 13.2188C32.0938 13.1621 32.0938 13.1621 32 13.0938C32 13.0628 32 13.0319 32 13Z" fill="#5D4334"/>
<path d="M52.544 27H48.7656L53.6733 12.4545H58.3537L63.2614 27H59.483L56.0668 16.1193H55.9531L52.544 27ZM52.0398 21.2756H59.9375V23.946H52.0398V21.2756ZM68.1282 27.1562C67.3233 27.1562 66.5917 26.9479 65.9336 26.5312C65.2754 26.1146 64.7499 25.4896 64.3569 24.6562C63.9639 23.8229 63.7674 22.7884 63.7674 21.5526C63.7674 20.2694 63.971 19.2135 64.3782 18.3849C64.7854 17.5563 65.3181 16.9432 65.9762 16.5455C66.6391 16.1477 67.3517 15.9489 68.114 15.9489C68.6869 15.9489 69.177 16.0483 69.5842 16.2472C69.9914 16.4413 70.3275 16.6922 70.5927 17C70.8578 17.3078 71.0591 17.6274 71.1964 17.9588H71.2674V12.4545H74.7404V27H71.3029V25.2315H71.1964C71.0496 25.5677 70.8413 25.8826 70.5714 26.1761C70.3015 26.4697 69.963 26.7064 69.5558 26.8864C69.1533 27.0663 68.6774 27.1562 68.1282 27.1562ZM69.3356 24.4503C69.757 24.4503 70.1168 24.3319 70.4151 24.0952C70.7134 23.8537 70.9431 23.5152 71.104 23.0795C71.265 22.6439 71.3455 22.1326 71.3455 21.5455C71.3455 20.9489 71.265 20.4351 71.104 20.0043C70.9478 19.5734 70.7182 19.242 70.4151 19.0099C70.1168 18.7779 69.757 18.6619 69.3356 18.6619C68.9047 18.6619 68.5401 18.7803 68.2418 19.017C67.9435 19.2538 67.7163 19.5876 67.56 20.0185C67.4085 20.4493 67.3327 20.9583 67.3327 21.5455C67.3327 22.1326 67.4109 22.6439 67.5671 23.0795C67.7234 23.5152 67.9483 23.8537 68.2418 24.0952C68.5401 24.3319 68.9047 24.4503 69.3356 24.4503ZM76.9368 27V16.0909H80.2393V18.0938H80.3601C80.5874 17.4309 80.9709 16.9077 81.5107 16.5241C82.0504 16.1406 82.6944 15.9489 83.4425 15.9489C84.2 15.9489 84.8487 16.143 85.3885 16.5312C85.9283 16.9195 86.2715 17.4403 86.4183 18.0938H86.532C86.7356 17.4451 87.1333 16.9266 87.7251 16.5384C88.317 16.1454 89.0154 15.9489 89.8203 15.9489C90.8525 15.9489 91.6906 16.2803 92.3345 16.9432C92.9785 17.6013 93.3004 18.5057 93.3004 19.6562V27H89.8274V20.4517C89.8274 19.9072 89.6877 19.4929 89.4084 19.2088C89.129 18.92 88.7668 18.7756 88.3217 18.7756C87.8435 18.7756 87.4671 18.9318 87.1925 19.2443C86.9226 19.5521 86.7876 19.9664 86.7876 20.4872V27H83.4496V20.4162C83.4496 19.9096 83.3123 19.5095 83.0376 19.2159C82.763 18.9223 82.4008 18.7756 81.951 18.7756C81.648 18.7756 81.3804 18.849 81.1484 18.9957C80.9164 19.1378 80.7341 19.3414 80.6016 19.6065C80.4737 19.8717 80.4098 20.1842 80.4098 20.544V27H76.9368ZM95.4524 27V16.0909H98.9254V27H95.4524ZM97.1925 14.8196C96.7048 14.8196 96.2857 14.6586 95.9354 14.3366C95.585 14.0099 95.4098 13.617 95.4098 13.1577C95.4098 12.7031 95.585 12.3149 95.9354 11.9929C96.2857 11.6662 96.7048 11.5028 97.1925 11.5028C97.6849 11.5028 98.1039 11.6662 98.4496 11.9929C98.8 12.3149 98.9751 12.7031 98.9751 13.1577C98.9751 13.617 98.8 14.0099 98.4496 14.3366C98.1039 14.6586 97.6849 14.8196 97.1925 14.8196ZM104.609 20.7784V27H101.136V16.0909H104.439V18.0938H104.559C104.801 17.4261 105.213 16.9029 105.795 16.5241C106.377 16.1406 107.071 15.9489 107.876 15.9489C108.643 15.9489 109.308 16.1217 109.872 16.4673C110.44 16.8082 110.88 17.2865 111.193 17.902C111.51 18.5128 111.666 19.2277 111.662 20.0469V27H108.189V20.7287C108.193 20.1226 108.039 19.6491 107.727 19.3082C107.419 18.9673 106.991 18.7969 106.441 18.7969C106.077 18.7969 105.755 18.8774 105.475 19.0384C105.201 19.1946 104.988 19.4195 104.836 19.7131C104.69 20.0066 104.614 20.3617 104.609 20.7784Z" fill="#54392A"/>
<defs>
<clipPath id="clip0_2901_66">
<rect width="32" height="32" fill="white" transform="translate(3 4)"/>
</clipPath>
</defs>
</svg>
