<svg width="500" height="500" viewBox="0 0 500 500" fill="none" xmlns="http://www.w3.org/2000/svg">
<path d="M379.649 98.5114C378.594 98.7566 377.981 99.8289 378.321 100.835C380.524 107.371 384.117 118.581 385.508 126.131C387.023 134.362 388.025 147.031 386.151 148.129C386.151 148.129 384.618 139.954 381.788 133.681C381.788 133.681 377.79 125.223 375.887 124.693C373.984 124.162 379.682 132.254 380.595 140.393C381.29 146.603 383.612 153.641 381.739 161.941C381.002 165.209 379.742 168.766 379.23 171.789C378.68 175.032 377.667 178.19 376.141 181.121C374.085 185.074 371.445 190.97 369.549 193.974C366.756 198.399 354.771 212.737 350.478 216.796C350.478 216.796 355.627 212.39 359.303 209.239C359.303 209.239 349.237 235.01 310.374 254.56C271.515 274.114 239.215 274.579 208.934 261.755C178.653 248.935 146.854 227.885 131.519 182.699C131.519 182.699 152.055 236.895 197.51 254.637C242.965 272.379 255.769 269.422 282.756 263.596C282.756 263.596 248.051 270.952 215.294 257.832C182.538 244.716 161.688 229.663 144.023 196.254C126.362 162.845 121.045 112.894 158.797 64.9449C190.611 24.5347 250.635 18.9427 285.104 29.9034C291.535 31.9492 299.885 36.3701 301.138 36.7031C301.138 36.7031 260.525 6.81086 196.703 32.9959C132.88 59.1845 120.637 133.059 128.109 167.698C128.109 167.698 108.328 120.733 149.34 65.545C168.575 39.6638 190.772 26.9684 221.846 19.5575C220.485 19.5905 216.439 20.3736 211.821 21.4679C243.44 11.6307 276.159 14.4303 298.087 22.5438C335.906 36.5348 349.076 58.6722 351.63 63.8543C351.63 63.8543 334.07 43.1917 324.168 38.0718C324.168 38.0718 353.219 62.8735 361.517 85.3695C361.517 85.3695 359.972 75.5103 357.557 68.3044C357.557 68.3044 364.964 81.4536 367.436 91.913C367.436 91.913 369.725 78.7199 352.662 56.8716C335.596 35.0197 310.812 14.6975 270.868 7.48058C270.868 7.48058 287.22 7.33054 304.444 14.6902C321.667 22.0498 321.286 22.9427 323.413 23.7369C325.541 24.5347 307.816 13.9619 301.916 11.1366C296.015 8.31133 295.252 7.31224 286.906 5.81909C278.56 4.32594 268.453 0.278339 243.545 0.0038631C218.637 -0.266953 184.445 13.7606 169.114 23.3306C169.114 23.3306 188.05 9.65809 215.695 2.25091C215.695 2.25091 178.159 8.47236 144.913 41.1313C111.667 73.7903 107.426 111.595 106.361 113.015C106.361 113.015 108.844 96.9158 114.232 82.8992C114.232 82.8992 98.6128 112.916 101.286 148.869C103.956 184.821 118.54 222.772 142.453 245.748C166.365 268.723 201.096 293.488 256.517 293.045C311.937 292.599 354.199 263.782 373.602 237.133C393.006 210.483 399.86 185.341 400.226 169.78C400.226 169.78 393.596 207.947 371.075 233.579C348.553 259.212 309.215 287.812 243.979 288.024C243.979 288.024 307.065 284.965 352.213 248.203C382.962 223.167 394.135 175.057 394.614 170.179C397.265 143.123 392.837 118.182 379.649 98.5004V98.5114ZM127.084 214.022C126.119 213.495 130.629 220.854 132.775 223.691C134.922 226.527 128.909 216.016 127.084 214.022ZM237.465 288.13C238.74 288.343 239.869 288.335 240.46 288.225C241.047 288.119 237.465 288.13 237.465 288.13ZM148.51 53.523C147.029 54.716 145.743 56.6118 145.47 57.5999C145.197 58.5916 149.737 52.4324 148.51 53.523ZM358.626 214.402C357.146 217.945 347.143 228.924 348.575 228.335C350.011 227.746 359.266 216.338 358.626 214.402ZM114.03 185.498C113.424 186.944 122.38 209.813 124.5 210.505C125.121 210.71 119.359 198.164 117.597 193.301C115.544 187.636 114.075 184.287 114.03 185.498ZM150.825 51.082C150.582 50.0792 156.916 41.2484 173.504 29.6765C190.091 18.1046 215.156 12.7688 214.016 13.6032C213.436 14.0277 206.152 15.9527 197.088 19.455C182.549 25.0727 170.396 32.7909 159.111 43.3198C153.596 48.4653 152.485 50.0243 150.825 51.0856V51.082Z" fill="#FAF2E5"/>
<path d="M39.6507 495.103C40.6742 495.231 41.1523 495.761 41.0888 496.701C41.0216 497.641 40.4799 498.11 39.4564 498.11H1.63861C0.611359 498.11 0.0697192 497.638 0.00621634 496.701C-0.061022 495.761 0.420855 495.231 1.44437 495.103C2.97965 494.854 4.4813 494.664 5.9568 494.539C7.42484 494.415 8.70611 494.1 9.79686 493.599C10.8839 493.098 11.7468 492.253 12.3893 491.06C13.028 489.872 13.3493 488.086 13.3493 485.701V392.826C13.3493 390.32 13.028 388.472 12.3893 387.28C11.7468 386.091 10.8839 385.275 9.79686 384.836C8.70611 384.397 7.42857 384.116 5.9568 383.991C4.48503 383.867 2.97965 383.68 1.44437 383.428C0.417119 383.179 -0.061022 382.583 0.00621634 381.643C0.0697192 380.703 0.611359 380.234 1.63861 380.234H39.4564C40.4799 380.234 41.0216 380.706 41.0888 381.643C41.1523 382.583 40.6704 383.179 39.6507 383.428C37.9846 383.68 36.4157 383.867 34.9477 383.991C33.4759 384.119 32.1947 384.401 31.1077 384.836C30.0169 385.275 29.154 386.091 28.5152 387.28C27.8727 388.472 27.5552 390.32 27.5552 392.826V434.751H99.7393V392.826C99.7393 390.32 99.418 388.472 98.7793 387.28C98.1368 386.091 97.2739 385.275 96.1869 384.836C95.0961 384.397 93.8186 384.116 92.3468 383.991C90.875 383.867 89.3696 383.68 87.8344 383.428C86.8071 383.179 86.329 382.583 86.3962 381.643C86.4597 380.703 87.0014 380.234 88.0286 380.234H125.846C126.87 380.234 127.412 380.706 127.479 381.643C127.542 382.583 127.06 383.179 126.041 383.428C124.375 383.68 122.806 383.867 121.338 383.991C119.866 384.119 118.585 384.401 117.498 384.836C116.407 385.275 115.544 386.091 114.905 387.28C114.263 388.472 113.945 390.32 113.945 392.826V485.701C113.945 488.083 114.263 489.868 114.905 491.06C115.544 492.253 116.407 493.098 117.498 493.599C118.585 494.1 119.866 494.415 121.338 494.539C122.806 494.667 124.375 494.854 126.041 495.103C127.064 495.231 127.542 495.761 127.479 496.701C127.412 497.641 126.87 498.11 125.846 498.11H88.0286C87.0014 498.11 86.4597 497.638 86.3962 496.701C86.329 495.761 86.8109 495.231 87.8344 495.103C89.3696 494.854 90.8713 494.664 92.3468 494.539C93.8148 494.415 95.0961 494.1 96.1869 493.599C97.2739 493.098 98.1368 492.253 98.7793 491.06C99.418 489.872 99.7393 488.086 99.7393 485.701V439.075H27.5552V485.701C27.5552 488.083 27.8727 489.868 28.5152 491.06C29.154 492.253 30.0169 493.098 31.1077 493.599C32.1947 494.1 33.4759 494.415 34.9477 494.539C36.4157 494.667 37.9846 494.854 39.6507 495.103Z" fill="#FAF2E5"/>
<path d="M211.083 482.888C208.136 488.152 203.53 492.322 197.262 495.391C190.99 498.464 183.949 499.997 176.145 499.997C170.77 499.997 165.458 499.214 160.21 497.648C154.961 496.083 150.229 493.544 146.004 490.036C141.779 486.528 138.354 481.984 135.731 476.406C133.105 470.831 131.731 464.03 131.604 456.008C131.477 449.365 132.373 443.318 134.289 437.864C136.209 432.413 138.959 427.713 142.545 423.765C146.127 419.818 150.542 416.749 155.791 414.554C161.035 412.363 166.926 411.266 173.452 411.266C179.335 411.266 184.744 412.177 189.675 413.991C194.602 415.809 198.857 418.381 202.443 421.699C206.025 425.02 208.808 429.062 210.795 433.825C212.779 438.588 213.773 443.914 213.773 449.804C213.773 451.435 213.261 452.844 212.237 454.033C211.21 455.225 209.611 455.818 207.437 455.818H146.198C146.198 462.838 147.158 468.822 149.078 473.772C150.998 478.725 153.493 482.734 156.564 485.803C159.634 488.876 163.153 491.133 167.124 492.571C171.091 494.012 175.122 494.671 179.22 494.546C184.849 494.422 190.034 493.262 194.77 491.067C199.503 488.876 203.343 485.335 206.287 480.444C207.056 479.193 208.016 478.564 209.167 478.564C210.059 478.564 210.765 479.007 211.277 479.881C211.789 480.759 211.725 481.761 211.087 482.888H211.083ZM174.991 416.709C165.649 416.961 158.738 420.159 154.259 426.297C149.777 432.439 147.218 440.523 146.579 450.55H190.926C194.636 450.55 197.262 449.767 198.797 448.202C200.332 446.636 201.102 444.287 201.102 441.152C201.102 438.017 200.556 434.981 199.469 432.033C198.379 429.088 196.716 426.487 194.479 424.23C192.238 421.973 189.488 420.159 186.224 418.779C182.959 417.4 179.216 416.713 174.991 416.713V416.709Z" fill="#FAF2E5"/>
<path d="M258.31 495.878C259.333 496.13 259.811 496.723 259.748 497.663C259.681 498.603 259.139 499.071 258.116 499.071H221.258C220.23 499.071 219.689 498.599 219.625 497.663C219.558 496.723 220.04 496.13 221.063 495.878C222.726 495.629 224.295 495.439 225.766 495.314C227.234 495.19 228.516 494.908 229.606 494.469C230.693 494.03 231.556 493.218 232.199 492.026C232.838 490.837 233.159 488.99 233.159 486.48V432.336C233.159 429.831 233.032 427.888 232.774 426.509C232.516 425.13 232.035 424.131 231.336 423.502C230.63 422.877 229.606 422.533 228.265 422.467C226.921 422.405 225.098 422.372 222.793 422.372C221.766 422.372 221.161 421.9 220.97 420.963C220.78 420.023 221.452 419.365 222.987 418.988C226.443 417.986 229.995 416.921 233.641 415.791C237.287 414.664 240.712 413.347 243.91 411.844C245.445 411.09 246.214 411.405 246.214 412.784V486.48C246.214 488.99 246.532 490.837 247.174 492.026C247.813 493.218 248.71 494.03 249.864 494.469C251.014 494.912 252.326 495.194 253.801 495.314C255.269 495.439 256.778 495.629 258.313 495.878H258.31ZM247.559 388.34C247.559 389.346 247.398 390.66 247.081 392.287C246.76 393.919 246.248 395.485 245.546 396.988C244.84 398.492 243.943 399.779 242.856 400.844C241.765 401.912 240.458 402.442 238.919 402.442C237.38 402.442 236.039 401.912 234.888 400.844C233.738 399.779 232.808 398.495 232.106 396.988C231.4 395.485 230.888 393.952 230.57 392.383C230.249 390.817 230.088 389.467 230.088 388.34C230.088 385.458 231.015 383.329 232.871 381.95C234.724 380.571 236.741 379.883 238.919 379.883C241.097 379.883 243.077 380.574 244.87 381.95C246.659 383.329 247.555 385.461 247.555 388.34H247.559Z" fill="#FAF2E5"/>
<path d="M306.294 495.869C307.318 496.122 307.796 496.714 307.732 497.655C307.665 498.595 307.123 499.063 306.1 499.063H269.242C268.215 499.063 267.673 498.591 267.61 497.655C267.542 496.714 268.024 496.122 269.048 495.869C270.71 495.621 272.279 495.43 273.751 495.306C275.219 495.182 276.5 494.9 277.591 494.461C278.678 494.022 279.541 493.21 280.183 492.017C280.822 490.828 281.143 488.981 281.143 486.472V386.265C281.143 383.759 281.016 381.846 280.758 380.529C280.501 379.212 280.019 378.243 279.32 377.614C278.614 376.988 277.591 376.611 276.25 376.487C274.905 376.363 273.082 376.3 270.777 376.3C269.75 376.3 269.145 375.861 268.954 374.984C268.764 374.109 269.436 373.418 270.972 372.917C274.427 372.042 277.979 371.036 281.625 369.91C285.271 368.783 288.696 367.466 291.898 365.963C293.433 365.209 294.202 365.461 294.202 366.716V486.475C294.202 488.985 294.52 490.832 295.162 492.021C295.801 493.214 296.698 494.026 297.852 494.465C299.002 494.907 300.314 495.189 301.789 495.31C303.257 495.434 304.766 495.624 306.302 495.873L306.294 495.869Z" fill="#FAF2E5"/>
<path d="M453.93 418.418C446.504 418.418 440.3 420.426 435.309 424.435C430.318 428.448 425.87 433.46 421.966 439.478C418.059 445.495 414.349 452.043 410.831 459.125C407.308 466.207 403.311 472.755 398.832 478.773C394.35 484.791 389.008 489.802 382.803 493.811C376.595 497.824 368.885 499.829 359.67 499.829H356.405C351.03 499.829 345.718 499.046 340.469 497.481C335.221 495.915 330.488 493.376 326.264 489.868C322.039 486.36 318.613 481.817 315.991 476.238C313.365 470.663 311.99 463.862 311.863 455.84C311.863 449.197 312.79 443.15 314.646 437.7C316.499 432.249 319.222 427.548 322.804 423.601C326.387 419.654 330.802 416.585 336.05 414.39C341.295 412.199 347.186 411.102 353.712 411.102H355.437C361.325 411.226 366.636 412.294 371.373 414.299C376.106 416.307 380.17 418.999 383.562 422.383C386.95 425.767 389.542 429.78 391.335 434.415C393.125 439.053 394.025 444.131 394.025 449.643C394.025 451.275 393.513 452.683 392.489 453.872C391.462 455.065 389.863 455.657 387.689 455.657H326.641C326.641 462.677 327.601 468.662 329.521 473.611C331.441 478.564 333.936 482.574 337.007 485.643C340.077 488.716 343.596 490.973 347.567 492.41C351.534 493.852 355.564 494.51 359.662 494.386C366.446 494.386 372.333 492.977 377.324 490.157C382.314 487.337 386.729 483.642 390.569 479.066C394.41 474.493 397.928 469.353 401.13 463.65C404.327 457.947 407.465 452.277 410.535 446.636V432.161C410.535 429.656 410.438 427.713 410.248 426.334C410.057 424.955 409.575 423.956 408.81 423.327C408.04 422.701 406.987 422.358 405.642 422.292C404.297 422.23 402.474 422.197 400.17 422.197C399.142 422.197 398.537 421.725 398.347 420.788C398.156 419.848 398.829 419.19 400.364 418.813C403.819 417.811 407.401 416.746 411.115 415.616C414.824 414.489 418.279 413.172 421.48 411.669C421.992 411.42 422.504 411.358 423.016 411.482C423.527 411.61 423.785 411.983 423.785 412.609V426.707C427.494 422.197 431.783 418.498 436.646 415.616C441.51 412.733 447.266 411.292 453.923 411.292C458.017 411.167 462.018 411.606 465.921 412.609C469.825 413.615 473.314 415.147 476.384 417.214C479.455 419.281 481.92 421.915 483.777 425.112C485.629 428.309 486.56 432.041 486.56 436.299V486.309C486.56 488.818 486.877 490.665 487.52 491.854C488.158 493.047 489.021 493.859 490.112 494.298C491.199 494.741 492.48 495.022 493.952 495.143C495.42 495.271 496.989 495.458 498.655 495.706C499.548 495.959 500 496.551 500 497.491C500 498.432 499.488 498.9 498.465 498.9H485.219C479.97 498.9 476.676 497.711 475.331 495.33C473.986 492.952 473.314 490.066 473.314 486.682V436.295C473.314 430.533 471.394 426.206 467.554 423.323C463.714 420.441 459.171 418.813 453.923 418.436L453.93 418.418ZM355.445 416.538C345.972 416.79 338.998 419.987 334.519 426.125C330.036 432.267 327.477 440.352 326.839 450.379H371.186C374.895 450.379 377.521 449.596 379.057 448.03C380.592 446.465 381.362 444.116 381.362 440.981C381.362 437.846 380.816 434.81 379.729 431.861C378.638 428.917 377.01 426.316 374.832 424.059C372.654 421.802 369.935 419.987 366.674 418.608C363.409 417.229 359.666 416.541 355.441 416.541L355.445 416.538ZM435.884 495.688C436.777 495.94 437.229 496.533 437.229 497.473C437.229 498.413 436.717 498.882 435.694 498.882H398.642C397.615 498.882 397.107 498.41 397.107 497.473C397.107 496.537 397.555 495.94 398.451 495.688C400.114 495.439 401.682 495.249 403.154 495.125C404.622 495 405.904 494.719 406.994 494.28C408.081 493.841 408.944 493.029 409.587 491.836C410.225 490.647 410.547 488.8 410.547 486.29V465.988C411.955 463.233 413.359 460.508 414.771 457.808C416.18 455.116 417.584 452.515 418.996 450.006C419.766 448.879 420.659 448.312 421.682 448.312C423.09 448.312 423.793 449.252 423.793 451.132V486.29C423.793 488.8 424.11 490.647 424.753 491.836C425.391 493.029 426.254 493.841 427.345 494.28C428.432 494.722 429.713 495.004 431.185 495.125C432.653 495.253 434.222 495.439 435.888 495.688H435.884Z" fill="#FAF2E5"/>
<path d="M430.403 436.861C442.296 434.476 453.805 435.859 458.616 445.691C450.895 437.834 426.648 440.566 426.648 440.566C426.648 440.566 429.401 454.043 439.969 456.417C448.777 458.396 457.963 454.281 468.568 459.322C471.732 436.268 452.102 412.158 430.403 436.861Z" fill="#FAF2E5"/>
</svg>
